<?xml version="1.0" encoding="UTF-8"?>
<!-- Created with Inkscape (http://www.inkscape.org/) -->
<svg width="28.509mm" height="33.882mm" version="1.1" viewBox="0 0 28.509 33.882" xml:space="preserve" xmlns="http://www.w3.org/2000/svg"><g transform="translate(241.62 -158.92)"><path d="m-232.6 192.5c-3.4541-0.57707-6.0258-2.1259-7.4387-4.48-1.1415-1.9019-1.3842-2.813-1.5487-5.8136-0.15877-2.8959 0.21238-3.9798 1.6756-4.8934l0.8497-0.53055 0.0106-6.0854c9e-3 -5.2521 0.074-6.2115 0.47322-7.0062 1.3193-2.6259 4.9831-2.8262 6.5998-0.36085 0.38505 0.58717 0.49522 1.4086 0.56951 4.246l0.0921 3.518h0.75057c1.031 0 2.114 0.44348 2.9017 1.1882 0.50554 0.47797 0.95752 0.62472 1.9175 0.62258 1.3119-3e-3 2.9194 0.75152 3.209 1.5061 0.11314 0.29483 0.4065 0.3571 1.1507 0.24425 1.349-0.20457 3.1622 0.73748 3.8401 1.9952 0.43822 0.81298 0.48637 1.3783 0.39435 4.6302-0.12804 4.5245-0.64073 6.133-2.6227 8.2287-2.618 2.7682-7.4344 3.8915-12.824 2.991zm7.7135-1.8814c1.5623-0.39217 2.5136-0.93393 3.7728-2.1486 1.4365-1.3856 2.0794-3.1005 2.3212-6.1912 0.33186-4.2421-0.24915-5.9026-2.0591-5.8849-1.0444 0.0102-1.6607 0.44422-2.0852 1.4684-0.31938 0.77062-0.32061 0.76915-0.60571-0.72426-0.33206-1.7394-1-2.6046-2.0108-2.6046-0.90583 0-2.1113 0.92996-2.1113 1.6288 0 0.90608-0.65658 0.3768-0.73288-0.5908-0.13093-1.6602-0.32692-2.0835-1.1655-2.5171-0.76052-0.39328-0.90782-0.39447-1.7061-0.0138-0.59438 0.28344-0.94152 0.67842-1.0859 1.2355-0.51399 1.9836-0.73608 0.73249-0.80504-4.535-0.0636-4.8559-0.1235-5.501-0.54653-5.8838-0.81874-0.74094-1.9478-0.81179-2.7597-0.17316l-0.72343 0.56905v8.029c0 4.4159-0.072 8.2166-0.16002 8.4459-0.29435 0.76708-0.63373 0.13809-0.63373-1.1746 0-1.2334-0.03-1.2881-0.59531-1.0865-1.0922 0.3895-1.5609 1.765-1.3646 4.004 0.46848 5.341 3.1237 7.917 8.7067 8.4469 2.3335 0.22149 4.7245 0.10883 6.35-0.2992zm3.4648-19.003c-0.82124-0.90901-0.91947-1.1456-0.6696-1.6124 0.18824-0.35173 0.46898-0.50109 0.786-0.41819 0.42146 0.11022 0.50473-0.0497 0.57266-1.0995 0.072-1.1128 0.14177-1.2285 0.74095-1.2285 0.60033 0 0.66885 0.11488 0.74154 1.2431 0.062 0.96181 0.1675 1.2096 0.46639 1.0949 0.40068-0.15375 1.1733 0.33114 1.1733 0.73635 0 0.4533-1.9218 2.3496-2.3812 2.3496-0.25718 0-0.90068-0.47937-1.43-1.0653zm-4.3901-4.3895c-0.5825-0.52626-1.0591-1.1672-1.0591-1.4244 0-0.25718 0.47938-0.90068 1.0653-1.43 0.90901-0.82124 1.1456-0.91947 1.6124-0.6696 0.35172 0.18824 0.50108 0.46898 0.41818 0.786-0.11021 0.42146 0.0497 0.50473 1.0996 0.57266 1.1128 0.072 1.2285 0.14178 1.2285 0.74095 0 0.60033-0.11487 0.66886-1.2431 0.74154-0.96181 0.062-1.2096 0.1675-1.0949 0.46639 0.15376 0.40068-0.33113 1.1733-0.73635 1.1733-0.12728 0-0.70801-0.43058-1.2905-0.95683zm9.9287 0.59821c-0.29138-0.21305-0.42483-0.52957-0.32881-0.77981 0.1314-0.34243-0.0708-0.43617-1.0815-0.50128-1.1282-0.0727-1.2431-0.14121-1.2431-0.74154 0-0.59917 0.11569-0.66895 1.2285-0.74095 1.0499-0.0679 1.2098-0.1512 1.0996-0.57266-0.0829-0.31702 0.0665-0.59776 0.41818-0.786 0.46689-0.24987 0.70343-0.15164 1.6124 0.6696 0.5859 0.52933 1.0653 1.1728 1.0653 1.43 0 0.3692-1.8582 2.3812-2.1992 2.3812-0.0445 0-0.30166-0.16138-0.57139-0.35862zm-4.7148-3.5108c-0.10316-0.10315-0.18755-0.69234-0.18755-1.3093 0-0.97477-0.0664-1.1044-0.50652-0.9893-0.33202 0.0868-0.60739-0.056-0.79934-0.41469-0.24987-0.46689-0.15164-0.70343 0.6696-1.6124 0.52933-0.5859 1.1728-1.0653 1.43-1.0653 0.4594 0 2.3812 1.8963 2.3812 2.3496 0 0.40521-0.77264 0.8901-1.1733 0.73634-0.29889-0.11469-0.40443 0.13307-0.46639 1.0949-0.0656 1.0178-0.17798 1.2571-0.62014 1.3204-0.29703 0.0425-0.62445-7e-3 -0.7276-0.11024z" fill="#fff" stroke-width=".26458"/></g></svg>
