<?xml version="1.0" encoding="UTF-8" standalone="no"?>
<!-- Created with Inkscape (http://www.inkscape.org/) -->

<svg
   width="53.357391mm"
   height="78.532051mm"
   viewBox="0 0 53.357391 78.532051"
   version="1.1"
   id="svg34208"
   inkscape:version="1.2.2 (b0a84865, 2022-12-01)"
   sodipodi:docname="snowman.svg"
   xmlns:inkscape="http://www.inkscape.org/namespaces/inkscape"
   xmlns:sodipodi="http://sodipodi.sourceforge.net/DTD/sodipodi-0.dtd"
   xmlns="http://www.w3.org/2000/svg"
   xmlns:svg="http://www.w3.org/2000/svg">
  <sodipodi:namedview
     id="namedview34210"
     pagecolor="#505050"
     bordercolor="#eeeeee"
     borderopacity="1"
     inkscape:showpageshadow="0"
     inkscape:pageopacity="0"
     inkscape:pagecheckerboard="0"
     inkscape:deskcolor="#505050"
     inkscape:document-units="mm"
     showgrid="false"
     inkscape:zoom="0.2102413"
     inkscape:cx="-28.538636"
     inkscape:cy="-76.103029"
     inkscape:window-width="1710"
     inkscape:window-height="970"
     inkscape:window-x="0"
     inkscape:window-y="39"
     inkscape:window-maximized="1"
     inkscape:current-layer="layer1" />
  <defs
     id="defs34205">
    <clipPath
       clipPathUnits="userSpaceOnUse"
       id="clipPath4628">
      <path
         d="M 233.901,509.552 H 361.379 V 287.786 H 233.901 Z"
         id="path4626" />
    </clipPath>
    <clipPath
       clipPathUnits="userSpaceOnUse"
       id="clipPath4648">
      <path
         d="M 233.901,509.552 H 367.934 V 287.786 H 233.901 Z"
         id="path4646" />
    </clipPath>
    <clipPath
       clipPathUnits="userSpaceOnUse"
       id="clipPath4692">
      <path
         d="m 285.204,371.224 h 15.182 v -17.158 h -15.182 z"
         id="path4690" />
    </clipPath>
    <clipPath
       clipPathUnits="userSpaceOnUse"
       id="clipPath4716">
      <path
         d="m 303.348,406.824 h 28.765 v -33.549 h -28.765 z"
         id="path4714" />
    </clipPath>
    <clipPath
       clipPathUnits="userSpaceOnUse"
       id="clipPath4912">
      <path
         d="m 271.067,392.813 h 14.834 v -20.618 h -14.834 z"
         id="path4910" />
    </clipPath>
    <clipPath
       clipPathUnits="userSpaceOnUse"
       id="clipPath4928">
      <path
         d="m 287.964,396.851 h 9 v -15.193 h -9 z"
         id="path4926" />
    </clipPath>
  </defs>
  <g
     inkscape:label="Layer 1"
     inkscape:groupmode="layer"
     id="layer1"
     transform="translate(-113.01198,-168.38228)">
    <g
       id="g32966"
       transform="matrix(0.35277777,0,0,-0.35277777,30.49691,348.43894)">
      <g
         id="g4614"
         transform="translate(309.577,294.6804)">
        <path
           d="m 0,0 c 2.392,-0.187 4.465,-0.45 6.066,-0.764 2.702,-0.532 4.3,-1.392 4.3,-2.523 0,-1.297 -2.346,-2.284 -6.139,-2.831 -3.31,-0.479 -7.869,-0.776 -12.886,-0.776 -5.017,0 -9.575,0.297 -12.887,0.774 -3.792,0.549 -6.138,1.536 -6.138,2.833 0,1.131 1.598,1.991 4.3,2.523 1.6,0.314 3.672,0.577 6.065,0.764 -2.094,1.562 -3.895,3.675 -5.278,6.178 -1.907,3.447 -3.027,7.647 -3.027,12.168 0,3.814 0.798,7.404 2.195,10.506 1.109,2.465 2.601,4.627 4.372,6.355 -15.764,2.458 -29.712,10.41 -39.818,21.837 -10.454,11.82 -16.801,27.359 -16.801,44.372 0,7.768 1.327,15.233 3.764,22.18 2.469,7.039 6.082,13.544 10.611,19.286 -8.082,28.93 -9.113,45.689 -6.257,53.966 1.444,4.185 3.875,6.336 6.913,6.87 2.934,0.515 6.371,-0.541 9.975,-2.757 9.478,-5.831 20.48,-19.954 26.279,-34.389 2.406,0.579 4.865,1.029 7.363,1.341 2.744,0.341 5.539,0.519 8.369,0.519 1.459,0 2.932,-0.05 4.416,-0.147 1.241,-0.081 2.48,-0.197 3.714,-0.346 9.889,18.972 20.695,35.51 29.225,42.802 3.529,3.016 6.753,4.512 9.476,4.048 2.818,-0.48 4.962,-2.948 6.205,-7.842 2.361,-9.306 1.587,-28.08 -4.004,-59.859 5.627,-6.038 10.153,-13.116 13.256,-20.909 3.05,-7.666 4.728,-16.023 4.728,-24.763 0,-17.014 -6.346,-32.552 -16.801,-44.373 C 31.45,45.618 17.502,37.665 1.737,35.207 3.509,33.478 5,31.317 6.111,28.852 7.507,25.749 8.306,22.162 8.306,18.346 8.306,17.193 8.229,16.039 8.082,14.899 7.999,14.244 7.89,13.601 7.761,12.971 h 0.022 c 1.756,0 3.349,-0.714 4.5,-1.864 1.15,-1.15 1.863,-2.741 1.863,-4.498 0,-1.757 -0.713,-3.35 -1.863,-4.5 H 12.279 C 11.128,0.958 9.536,0.245 7.783,0.245 6.531,0.245 5.358,0.611 4.369,1.243 3.78,1.619 3.255,2.09 2.819,2.633 2.155,1.867 1.442,1.165 0.686,0.538 L 0.684,0.54 C 0.461,0.355 0.231,0.173 0,0"
           style="fill:#e0ebea;fill-opacity:1;fill-rule:evenodd;stroke:none"
           id="path4616" />
      </g>
      <g
         id="g4618"
         transform="translate(309.8251,294.9285)">
        <path
           d="m 0,0 c 2.392,-0.187 4.465,-0.45 6.066,-0.764 2.702,-0.532 4.3,-1.392 4.3,-2.523 0,-1.297 -2.346,-2.284 -6.139,-2.831 -3.31,-0.479 -7.869,-0.776 -12.886,-0.776 -5.017,0 -9.575,0.297 -12.887,0.774 -3.792,0.549 -6.138,1.536 -6.138,2.833 0,1.131 1.598,1.991 4.3,2.523 1.6,0.314 3.672,0.577 6.065,0.764 -2.094,1.562 -3.895,3.675 -5.278,6.178 -1.907,3.447 -3.027,7.647 -3.027,12.168 0,3.814 0.798,7.404 2.195,10.506 1.109,2.465 2.601,4.627 4.372,6.355 -15.764,2.458 -29.712,10.41 -39.818,21.837 -10.454,11.82 -16.801,27.359 -16.801,44.372 0,7.768 1.327,15.233 3.764,22.18 2.469,7.039 6.082,13.544 10.611,19.286 -8.082,28.93 -9.113,45.689 -6.257,53.966 1.444,4.185 3.875,6.336 6.913,6.87 2.934,0.515 6.371,-0.541 9.975,-2.757 9.478,-5.831 20.48,-19.954 26.279,-34.389 2.406,0.579 4.865,1.029 7.363,1.341 2.744,0.341 5.539,0.519 8.369,0.519 1.459,0 2.932,-0.05 4.416,-0.147 1.241,-0.081 2.48,-0.197 3.714,-0.346 9.889,18.972 20.695,35.51 29.225,42.802 3.529,3.016 6.753,4.512 9.476,4.048 2.818,-0.48 4.962,-2.948 6.205,-7.842 2.361,-9.306 1.587,-28.08 -4.004,-59.859 5.627,-6.038 10.153,-13.116 13.256,-20.909 3.05,-7.666 4.728,-16.023 4.728,-24.763 0,-17.014 -6.346,-32.552 -16.801,-44.373 C 31.45,45.618 17.502,37.665 1.737,35.207 3.509,33.478 5,31.317 6.111,28.852 7.507,25.749 8.306,22.162 8.306,18.346 8.306,17.193 8.229,16.039 8.083,14.899 7.999,14.244 7.89,13.601 7.761,12.971 h 0.022 c 1.756,0 3.349,-0.714 4.5,-1.864 1.15,-1.15 1.863,-2.741 1.863,-4.498 0,-1.757 -0.713,-3.35 -1.863,-4.5 H 12.279 C 11.128,0.958 9.536,0.245 7.783,0.245 6.531,0.245 5.358,0.611 4.369,1.243 3.78,1.619 3.255,2.09 2.819,2.633 2.155,1.867 1.442,1.165 0.686,0.538 L 0.684,0.54 C 0.461,0.355 0.231,0.173 0,0"
           style="fill:#ecf5f3;fill-opacity:1;fill-rule:evenodd;stroke:none"
           id="path4620" />
      </g>
      <g
         id="g4622">
        <g
           id="g4624" />
        <g
           id="g4640">
          <g
             clip-path="url(#clipPath4628)"
             opacity="0.350006"
             id="g4638">
            <g
               transform="translate(284.991,461.7239)"
               id="g4632">
              <path
                 d="m 0,0 c -1.133,-0.709 -2.366,-1.316 -3.514,-1.997 -0.876,-1.1 -1.971,-2.052 -3.167,-2.941 -0.415,-1.082 -0.097,-2.238 0.071,-3.929 0.005,-0.053 0.01,-0.099 0.016,-0.143 0.49,-0.547 -0.083,-0.138 0.616,-0.45 -0.777,0.347 1.043,-0.037 0.697,-0.077 0.517,-0.011 1.052,0.028 1.556,0.111 1.475,0.243 4.703,1.573 6.434,2.374 2.48,1.148 4.918,2.506 7.52,3.361 3.708,1.22 7.839,1.501 11.708,1.169 4.431,-0.381 8.404,-1.576 12.579,-2.992 -2.051,3.273 -3.456,6.939 -2.236,10.845 1.202,3.849 4.431,6.368 6.953,9.331 2.135,2.507 2.579,6.145 3.827,9.226 1.468,3.623 4.003,5.851 7.167,8.004 2.509,1.707 3.201,5.133 5.466,7.48 3.187,3.302 7.864,4.33 12.068,2.508 0.247,-0.107 0.487,-0.221 0.722,-0.343 -1.281,3.814 -3.24,5.785 -5.725,6.208 -2.723,0.464 -5.947,-1.031 -9.476,-4.048 C 44.752,36.406 33.946,19.868 24.057,0.896 22.823,1.044 21.584,1.16 20.343,1.242 18.859,1.339 17.386,1.389 15.927,1.389 13.097,1.389 10.302,1.211 7.558,0.87 5.06,0.558 2.601,0.108 0.195,-0.471 0.132,-0.314 0.064,-0.157 0,0"
                 style="fill:#a6dee0;fill-opacity:1;fill-rule:evenodd;stroke:none"
                 id="path4630" />
            </g>
            <g
               transform="translate(357.088,363.4975)"
               id="g4636">
              <path
                 d="m 0,0 c -2.7,-1.968 -5.991,-3.39 -8.399,-5.703 -2.103,-2.022 -3.635,-4.528 -5.85,-6.458 -2.61,-2.275 -5.632,-4.028 -8.248,-6.294 -2.703,-2.342 -4.893,-4.973 -8.069,-6.749 -2.943,-1.646 -6.198,-2.954 -9.48,-3.74 -2.492,-0.597 -5.924,-0.418 -8.071,-1.758 -1.086,-0.678 -2.167,-0.897 -3.164,-0.791 -3.043,-1.123 -7.019,0.304 -6.902,4.45 0.008,0.103 0.008,0.205 0.009,0.308 -0.189,0.108 -0.389,0.285 10e-4,0.042 0,0.008 0.001,0.016 0.001,0.024 -0.389,0.302 -0.735,0.711 -1.126,1.027 -0.081,0.046 -0.19,0.109 -0.36,0.207 -2.225,1.282 -3.891,1.863 -6.283,2.575 -4.592,1.368 -9.707,1.938 -13.906,4.368 -4.562,2.639 -7.535,6.831 -9.75,11.505 -1.835,3.873 -3.263,8.21 -6.166,11.368 -1.899,2.067 -4.347,3.562 -6.358,5.515 -2.136,2.074 -3.698,4.415 -4.871,7.134 -2.429,5.627 -5.489,11.738 -4.936,18.014 0.308,3.496 1.281,7.137 2.223,10.524 0.923,3.319 2.288,6.387 4.338,9.162 1.774,2.403 4.32,4.124 5.158,6.897 1.008,3.34 2.655,5.939 4.714,8.731 1.777,2.41 3.094,4.929 4.388,7.629 0.043,0.089 0.144,0.34 0.255,0.607 -0.65,0.206 -1.191,0.37 -0.409,0.128 -0.607,0.188 -1.238,0.318 -1.863,0.436 -0.075,0.014 -1.205,0.091 -1.101,0.128 -1.097,-0.084 -2.317,-0.459 -3.538,-0.557 -3.53,-0.285 -6.319,1.189 -8.347,4.044 -0.854,1.204 -1.083,2.408 -0.889,3.496 -0.085,0.204 -0.163,0.417 -0.227,0.646 -1.408,4.958 -1.045,9.9 -0.294,14.934 0.569,3.809 2.141,8.732 0.776,12.512 -0.268,0.744 -0.65,1.323 -1.097,1.981 -0.037,0.055 -0.069,0.103 -0.098,0.145 -0.184,0.197 -0.374,0.39 -0.562,0.581 -1.096,1.117 -2.233,2.265 -3.148,3.537 -2.23,3.1 -2.258,7.34 1.236,9.58 4.474,2.869 12.158,0.865 16.602,-1.278 0.063,-0.03 0.126,-0.068 0.189,-0.1 -1.54,1.297 -3.068,2.42 -4.559,3.337 -3.604,2.216 -7.041,3.272 -9.975,2.757 -3.038,-0.534 -5.469,-2.685 -6.913,-6.87 -2.856,-8.277 -1.825,-25.036 6.257,-53.966 -4.529,-5.742 -8.142,-12.247 -10.611,-19.287 -2.437,-6.946 -3.764,-14.412 -3.764,-22.179 0,-17.013 6.347,-32.552 16.801,-44.372 10.106,-11.427 24.053,-19.38 39.818,-21.837 -1.771,-1.728 -3.263,-3.89 -4.372,-6.355 -1.397,-3.102 -2.195,-6.692 -2.195,-10.506 0,-4.521 1.12,-8.721 3.027,-12.169 1.383,-2.502 3.184,-4.615 5.277,-6.177 -2.392,-0.187 -4.464,-0.45 -6.064,-0.764 -2.702,-0.532 -4.3,-1.392 -4.3,-2.523 0,-1.297 2.346,-2.284 6.138,-2.833 3.312,-0.477 7.87,-0.774 12.887,-0.774 5.017,0 9.576,0.297 12.886,0.776 3.792,0.547 6.139,1.534 6.139,2.831 0,0.8 -0.802,1.463 -2.226,1.972 0.379,-0.675 0.296,-1.478 -0.656,-2.029 -0.954,-0.553 -2.251,-0.639 -3.499,-0.616 -1.696,-0.435 -3.884,-0.204 -5.274,0.315 -0.581,0.217 -1.142,0.92 -0.707,1.562 0.546,0.808 1.16,1.392 1.99,1.767 0.033,0.11 0.086,0.211 0.152,0.304 -0.049,0.004 -0.096,0.008 -0.146,0.012 0.14,0.105 0.278,0.218 0.416,0.329 0.158,0.25 0.324,0.494 0.508,0.704 0.838,0.954 1.211,0.793 -0.395,0.489 -2.226,-0.421 -4.371,-0.75 -6.648,-0.731 -3.189,0.028 -7.715,0.671 -9.885,3.371 -1.17,1.456 -0.86,3.026 -0.949,4.766 -0.131,2.529 -1.56,4.447 -2.252,6.81 -0.589,2.011 -0.101,4.061 -0.274,6.128 -0.131,1.574 -0.453,3.103 0.186,4.616 1.318,3.116 5.415,3.901 8.402,4.063 2.476,0.134 5.012,0.212 7.486,0.279 1.742,0.046 3.8,-0.331 5.291,-1.276 1.372,-0.871 2.012,-2.332 2.684,-3.742 0.841,-1.765 2.291,-3.432 2.845,-5.309 0.48,-1.622 0.081,-3.305 -0.18,-4.928 -0.251,-1.559 -0.531,-2.98 -0.907,-4.42 1.504,0.364 3.053,0.323 4.325,-0.787 1.094,-0.953 1.791,-2.626 1.596,-4.072 -0.186,-1.382 -1.137,-2.292 -2.499,-2.519 -0.969,-0.162 -1.86,0.065 -2.714,0.51 -0.438,0.229 -0.928,0.789 -1.411,0.902 -1.444,0.338 -2.006,-1.032 -2.116,-2.201 0.2,-0.388 0.23,-0.798 0.156,-1.213 0.223,-0.19 0.456,-0.368 0.704,-0.527 0.989,-0.631 2.162,-0.998 3.414,-0.998 1.753,0 3.345,0.714 4.496,1.865 h 0.004 c 1.15,1.15 1.863,2.743 1.863,4.5 0,1.756 -0.713,3.348 -1.863,4.498 -1.151,1.15 -2.744,1.864 -4.5,1.864 h -0.022 c 0.129,0.63 0.238,1.273 0.321,1.928 0.147,1.14 0.224,2.294 0.224,3.447 0,3.816 -0.799,7.403 -2.195,10.506 -1.111,2.465 -2.602,4.626 -4.374,6.355 15.765,2.457 29.713,10.411 39.819,21.836 4.09,4.624 7.547,9.819 10.246,15.447 C 2.99,2.364 1.563,1.14 0,0"
                 style="fill:#a6dee0;fill-opacity:1;fill-rule:evenodd;stroke:none"
                 id="path4634" />
            </g>
          </g>
        </g>
      </g>
      <g
         id="g4642">
        <g
           id="g4644" />
        <g
           id="g4656">
          <g
             clip-path="url(#clipPath4648)"
             opacity="0.259995"
             id="g4654">
            <g
               transform="translate(363.2056,420.8593)"
               id="g4652">
              <path
                 d="m 0,0 c -3.102,7.793 -7.628,14.871 -13.255,20.909 5.59,31.78 6.364,50.553 4.003,59.859 -1.242,4.894 -3.386,7.362 -6.204,7.842 -2.724,0.464 -5.947,-1.032 -9.476,-4.048 -8.53,-7.292 -19.337,-23.829 -29.225,-42.802 -1.235,0.149 -2.474,0.265 -3.715,0.346 -1.483,0.097 -2.956,0.147 -4.415,0.147 -2.83,0 -5.626,-0.178 -8.37,-0.519 -2.498,-0.312 -4.957,-0.762 -7.363,-1.341 -5.798,14.435 -16.801,28.558 -26.278,34.389 -3.605,2.217 -7.042,3.272 -9.976,2.758 -3.038,-0.534 -5.468,-2.686 -6.912,-6.871 -2.857,-8.277 -1.826,-25.036 6.256,-53.966 -4.529,-5.742 -8.141,-12.246 -10.611,-19.286 -2.436,-6.947 -3.764,-14.412 -3.764,-22.18 0,-17.013 6.347,-32.551 16.801,-44.372 10.107,-11.427 24.054,-19.379 39.818,-21.837 -1.77,-1.727 -3.263,-3.889 -4.372,-6.355 -1.396,-3.102 -2.195,-6.692 -2.195,-10.505 0,-4.522 1.121,-8.721 3.027,-12.169 1.384,-2.503 3.184,-4.616 5.278,-6.178 -2.392,-0.187 -4.465,-0.45 -6.064,-0.764 -2.703,-0.532 -4.301,-1.392 -4.301,-2.523 0,-1.297 2.346,-2.284 6.138,-2.833 3.312,-0.477 7.87,-0.774 12.888,-0.774 5.016,0 9.576,0.297 12.886,0.776 3.792,0.547 6.139,1.534 6.139,2.831 0,1.131 -1.599,1.991 -4.301,2.523 -1.601,0.314 -3.673,0.577 -6.066,0.764 0.231,0.173 0.461,0.355 0.685,0.54 l 0.001,-0.002 c 0.756,0.627 1.469,1.329 2.133,2.095 0.436,-0.543 0.961,-1.014 1.55,-1.39 0.989,-0.631 2.162,-0.998 3.415,-0.998 1.753,0 3.345,0.714 4.495,1.864 h 0.004 c 1.151,1.15 1.864,2.743 1.864,4.5 0,1.358 -0.43,2.614 -1.154,3.647 0.722,-2.152 -0.009,-4.826 -2.178,-6.259 -2.594,-1.714 -4.023,-0.081 -6.513,0.337 -1.888,0.317 -1.854,-0.019 -3.422,-1.44 -1.261,-1.142 -2.47,-2.169 -3.948,-3.025 -0.902,-0.522 -1.793,-0.552 -2.562,-0.282 -1.788,-0.141 -3.378,0.192 -4.899,1.336 -1.351,1.016 -2.282,3.205 -3.776,3.74 -1.35,0.485 -2.61,-0.118 -4.007,0.808 -1.675,1.11 -2.783,3.034 -3.684,4.787 -2.018,3.921 -3.215,8.629 -1.864,12.953 0.791,2.532 2.551,4.536 4.591,6.315 1.736,3.018 3.943,6.054 4.611,9.27 -6.849,1.149 -13.362,2.169 -19.688,5.523 -0.321,0.17 -0.572,0.378 -0.792,0.598 -6.02,2.519 -11.819,6.411 -15.982,10.456 -7.674,7.456 -12.273,15.55 -15.996,25.523 -1.307,3.5 -1.78,7.146 -2.385,10.824 -0.596,3.62 -1.348,7.214 -1.237,10.897 0.298,9.892 1.999,19.287 6.779,28.069 2.629,4.829 6.112,8.775 10.139,11.828 -0.01,0.81 0.069,1.658 0.255,2.547 -0.492,0.742 -0.926,1.536 -1.271,2.384 -0.028,0.07 -0.059,0.142 -0.088,0.213 -0.156,0.241 -0.296,0.505 -0.395,0.82 -0.945,3.022 -3.189,5.1 -4.894,7.681 -1.481,2.241 -2.262,4.734 -2.953,7.316 -1.511,5.64 -2.406,11.557 -2.821,17.375 -0.482,6.748 -1.14,19.554 8.526,20.188 9.579,0.628 17.265,-10.838 21.69,-17.763 4.644,-7.267 8.763,-15.074 10.758,-23.439 4.185,1.828 8.675,2.867 13.246,2.867 5.393,0 10.45,-1.05 15.016,-2.954 1.995,15.765 9.581,29.495 19.978,41.821 0.698,0.828 1.519,1.499 2.418,2.021 1.566,1.041 3.428,1.683 5.5,1.743 5.625,0.16 11.165,-4.655 11.066,-10.47 -0.109,-6.379 -1.093,-12.694 -2.053,-18.99 -0.776,-5.092 -1.232,-10.222 -2.89,-15.129 -1.725,-5.103 -4.185,-9.65 -7.312,-13.683 7.607,-2.697 13.498,-9.814 17.311,-16.602 4.512,-8.032 6.693,-16.861 7.274,-26.035 0.419,-6.609 -0.564,-12.771 -2.786,-18.675 -0.907,-4.175 -2.374,-8.255 -4.502,-12.149 -7.296,-13.355 -19.809,-22.633 -33.987,-27.233 -4.92,-2.179 -9.231,-3.52 -14.956,-4.146 -2.543,-1.013 -4.381,-2.333 -3.703,-4.248 0.066,-0.184 0.146,-0.36 0.233,-0.533 5.203,-2.477 9.533,-6.496 11.018,-12.254 0.83,-3.217 0.798,-6.724 0.906,-10.015 0.038,-0.654 0.05,-1.309 0.036,-1.965 -0.065,-0.011 -0.116,-0.02 -0.172,-0.03 0.294,-0.093 0.721,-0.035 1.175,0.044 0.108,0.551 0.207,1.108 0.28,1.679 0.147,1.139 0.224,2.293 0.224,3.447 0,3.815 -0.799,7.402 -2.196,10.505 -1.11,2.466 -2.602,4.626 -4.373,6.355 15.764,2.458 29.713,10.411 39.819,21.836 10.454,11.822 16.801,27.359 16.801,44.373 C 4.729,-16.023 3.05,-7.666 0,0"
                 style="fill:#8cc7c7;fill-opacity:1;fill-rule:evenodd;stroke:none"
                 id="path4650" />
            </g>
          </g>
        </g>
      </g>
      <g
         id="g4658"
         transform="translate(299.4377,316.0465)">
        <path
           d="M 0,0 C 0,0.817 0.663,1.48 1.48,1.48 2.298,1.48 2.96,0.817 2.96,0 2.96,-0.817 2.298,-1.48 1.48,-1.48 0.663,-1.48 0,-0.817 0,0"
           style="fill:#232425;fill-opacity:1;fill-rule:evenodd;stroke:none"
           id="path4660" />
      </g>
      <g
         id="g4662"
         transform="translate(299.4377,321.5282)">
        <path
           d="M 0,0 C 0,0.817 0.663,1.48 1.48,1.48 2.298,1.48 2.96,0.817 2.96,0 2.96,-0.817 2.298,-1.48 1.48,-1.48 0.663,-1.48 0,-0.817 0,0"
           style="fill:#232425;fill-opacity:1;fill-rule:evenodd;stroke:none"
           id="path4664" />
      </g>
      <g
         id="g4666"
         transform="translate(307.9497,324.5439)">
        <path
           d="m 0,0 c 0,0 2.417,-12.806 3.724,-14.656 0,0 0.315,-0.767 1.172,-0.361 0.857,0.406 2.301,1.123 2.301,1.123 0,0 0.451,0.522 0.451,1.143 C 7.648,-12.129 2.503,-0.503 0,0"
           style="fill:#cedad8;fill-opacity:1;fill-rule:evenodd;stroke:none"
           id="path4668" />
      </g>
      <g
         id="g4670"
         transform="translate(322.7713,316.024)">
        <path
           d="m 0,0 c -0.416,0.25 -7.513,6.643 -9.6,9.225 0.105,0.054 0.185,0.107 0.216,0.159 0.027,0.046 0.037,0.128 0.041,0.226 0.51,0.074 0.968,0.163 1.312,0.271 1.737,0.541 0.181,2.21 0.181,2.21 0,0 -1.354,2.211 -2.256,2.437 -0.039,0.009 -0.092,0.018 -0.151,0.025 -0.086,0.437 -0.452,0.77 -0.452,0.77 0,0 -1.066,0.468 -2.104,0.513 -1.038,0.045 -2.186,-0.256 -2.429,-0.287 -0.493,-0.062 -0.906,-0.866 -0.907,-0.867 -1.807,0.052 -3.625,0.164 -4.849,0.432 -3.094,0.677 -9.033,0.253 -10.11,-0.158 0,0 -0.338,-0.113 -0.609,-0.293 -0.271,-0.18 -0.902,-0.947 -1.309,-1.173 -0.406,-0.226 -1.534,-1.354 -1.669,-1.669 -0.135,-0.316 -0.271,-1.083 0.767,-1.309 0.983,-0.213 10.7,-1.397 18.318,-1.292 0.21,-0.308 0.553,-0.681 1.037,-0.783 0.283,-0.06 0.913,-0.03 1.64,0.053 0.782,-1.343 4.62,-7.667 10.316,-12.641 0,0 0.632,-0.18 1.038,0 0.406,0.181 2.752,2.978 2.842,3.158 C 1.353,-0.812 0.451,-0.271 0,0"
           style="fill:#cb4f57;fill-opacity:1;fill-rule:evenodd;stroke:none"
           id="path4672" />
      </g>
      <g
         id="g4674"
         transform="translate(312.5461,326.0928)">
        <path
           d="m 0,0 c -0.595,0.681 -1.273,0.407 -1.82,-0.061 -0.639,0.058 -1.268,0.161 -1.811,0.245 -0.376,0.058 -0.831,0.121 -1.28,0.227 -0.014,0.072 -0.035,0.135 -0.046,0.214 -0.144,1.14 -0.638,2.548 -0.137,3.657 0.377,0.835 1.229,1.183 2.095,1.261 0.935,0.084 1.957,-0.087 2.739,-0.55 -0.114,0.16 -0.224,0.261 -0.224,0.261 0,0 -1.066,0.468 -2.104,0.513 C -3.626,5.812 -4.774,5.511 -5.017,5.48 -5.51,5.418 -5.923,4.613 -5.923,4.613 l 0.122,-2.128 c -0.395,-0.04 -1.311,-0.106 -2.133,0.023 -1.083,0.169 -1.963,0.338 -2.978,0.338 -1.015,0 -2.707,0.331 -1.455,-0.207 1.252,-0.538 1.122,-0.361 2.219,-0.585 1.097,-0.223 1.909,-0.359 2.484,-0.359 h 1.909 l 0.059,-1.026 c -0.045,0.021 -0.096,0.034 -0.14,0.056 -0.643,-1.094 -2.177,-1.182 -3.875,-1.164 -2.4,0.026 -4.753,0.165 -7.143,0.394 -1.999,0.191 -4.21,0.127 -6.117,0.754 -0.708,0.233 -1.189,1.186 -0.546,1.788 1.049,0.984 2.053,1.883 3.303,2.551 -0.295,-0.052 -0.526,-0.106 -0.669,-0.161 0,0 -0.338,-0.112 -0.609,-0.293 -0.271,-0.18 -0.902,-0.947 -1.308,-1.173 -0.406,-0.225 -1.534,-1.353 -1.67,-1.669 -0.135,-0.316 -0.27,-1.083 0.767,-1.309 0.983,-0.213 10.7,-1.397 18.318,-1.292 0.211,-0.308 0.553,-0.681 1.037,-0.783 0.127,-0.027 0.329,-0.034 0.573,-0.028 0.409,-1.825 2.445,-10.539 4.662,-13.642 0,0 0.134,-0.316 0.992,0 0.857,0.315 2.03,1.624 2.03,1.624 0,0 0.451,0.225 0,1.624 -0.177,0.549 -0.57,1.571 -0.982,2.61 1.363,-1.597 2.934,-3.25 4.681,-4.776 0,0 0.632,-0.18 1.038,0 0.406,0.181 2.752,2.978 2.842,3.159 0.057,0.113 -0.279,0.369 -0.649,0.611 0.021,-0.582 -0.382,-1.219 -0.75,-1.635 -0.411,-0.465 -0.951,-0.841 -1.324,-1.335 -0.354,-0.469 -1.132,-0.428 -1.53,-0.062 -0.073,0.068 -0.129,0.141 -0.177,0.218 -0.147,0.083 -0.299,0.184 -0.466,0.324 -0.893,0.751 -1.483,1.907 -2.194,2.817 -0.649,0.831 -1.383,1.564 -2.121,2.3 -0.378,0.932 -0.669,1.634 -0.669,1.634 l -3.074,4.791 c 1.124,0.196 2.163,0.471 2.307,0.714 0.027,0.045 0.039,0.125 0.041,0.225 0.51,0.075 0.968,0.163 1.312,0.271 1.737,0.541 0.181,2.211 0.181,2.211 0,0 -0.162,0.263 -0.409,0.616 C 1.99,2.589 2.015,2.542 2.034,2.486 L 2.342,1.849 C 3.104,0.97 2.222,-0.298 1.328,-0.026 1.196,-0.156 1.04,-0.232 0.877,-0.267 0.876,-0.253 0.876,-0.24 0.875,-0.225 0.793,-0.257 0.702,-0.276 0.604,-0.288 0.377,-0.275 0.187,-0.14 0,0"
           style="fill:#b1444e;fill-opacity:1;fill-rule:evenodd;stroke:none"
           id="path4676" />
      </g>
      <g
         id="g4678"
         transform="translate(312.0391,330.6475)">
        <path
           d="M 0,0 C 0,0 0.541,-1.506 0.626,-1.895 0.711,-2.284 1.083,-3.688 1.015,-3.841 0.947,-3.993 0.474,-3.147 0.271,-2.521 0.068,-1.895 -0.873,0.199 0,0"
           style="fill:#e06470;fill-opacity:1;fill-rule:evenodd;stroke:none"
           id="path4680" />
      </g>
      <g
         id="g4682"
         transform="translate(281.1284,347.0192)">
        <path
           d="m 0,0 c 0,0 5.414,-4.557 8.843,-5.504 3.429,-0.948 6.624,-1.85 9.831,-1.85 3.208,0 8.035,1.399 9.118,1.444 1.083,0.045 6.542,2.887 7.174,4.015 0.631,1.128 3.654,4.512 -1.128,5.549 -4.783,1.038 -10.287,0 -10.287,0 0,0 7.201,0.046 8.383,-0.857 1.182,-0.902 0.894,-4.277 0,-4.913 C 31.04,-2.752 22.312,-5.153 19.22,-4.842 16.127,-4.531 5.279,-2.527 2.978,-0.451 0.677,1.624 -4.462,4.98 0,0"
           style="fill:#cedad8;fill-opacity:1;fill-rule:evenodd;stroke:none"
           id="path4684" />
      </g>
      <g
         id="g4686">
        <g
           id="g4688" />
        <g
           id="g4700">
          <g
             clip-path="url(#clipPath4692)"
             opacity="0.350006"
             id="g4698">
            <g
               transform="translate(295.3705,371.2245)"
               id="g4696">
              <path
                 d="m 0,0 c 0,0 -2.264,-0.293 -3.888,-1.715 -1.624,-1.421 -3.036,-4.331 -3.988,-6.293 -0.952,-1.963 -2.17,-6.023 -2.17,-7.445 0,-1.421 -0.542,-1.421 0.677,-1.691 1.218,-0.271 10.825,3.383 11.638,3.789 0.814,0.406 2.167,-0.135 2.709,0.474 C 5.519,-12.272 0,0 0,0"
                 style="fill:#a6dee0;fill-opacity:1;fill-rule:evenodd;stroke:none"
                 id="path4694" />
            </g>
          </g>
        </g>
      </g>
      <g id="carrot">
      <g
         id="g4702"
         transform="translate(297.1674,359.1556)">
        <path
           d="m 0,0 c 0,0 -3.519,1.963 -3.722,5.211 -0.203,3.248 0.467,6.497 2.467,7.106 1.999,0.609 3.218,1.692 7.007,1.624 3.79,-0.068 19.233,-2.707 21.121,-3.519 C 28.762,9.61 28.742,8.662 28.211,7.986 27.679,7.309 21.201,4.061 19.77,3.519 18.34,2.978 4.264,-1.353 0,0"
           style="fill:#e5983d;fill-opacity:1;fill-rule:evenodd;stroke:none"
           id="path4704" />
      </g>
      <g
         id="g4706"
         transform="translate(321.765,365.8951)">
        <path
           d="m 0,0 c -0.971,-0.978 -2.454,-1.604 -3.844,-1.551 -0.791,0.031 -1.467,0.358 -1.916,0.896 -0.512,-1.516 -2.041,-2.149 -3.51,-2.62 -0.2,-0.064 -0.399,-0.129 -0.598,-0.197 0.034,-0.003 -0.749,-0.33 -0.868,-0.371 -0.835,-0.291 -1.795,-0.375 -2.602,0.054 -0.552,0.294 -0.945,0.738 -1.185,1.259 -0.353,0.219 -0.677,0.479 -0.973,0.767 -0.072,-0.202 -0.209,-0.569 -0.262,-0.669 -0.126,-0.24 -0.611,-0.925 -0.794,-1.126 -0.011,-0.013 -0.023,-0.024 -0.035,-0.036 -0.016,-0.017 -1.006,-0.846 -1.03,-0.862 -0.02,-0.013 -0.041,-0.024 -0.061,-0.036 -0.019,-0.012 -1.236,-0.571 -1.263,-0.58 -0.013,-0.004 -0.026,-0.01 -0.04,-0.014 -0.01,-0.003 -0.021,-0.005 -0.031,-0.008 -0.034,-0.01 -1.332,-0.223 -1.372,-0.226 -0.29,-0.019 -0.49,0.028 -0.832,0.063 -0.236,0.024 -0.574,0.03 -0.838,0.101 -0.472,0.127 -0.956,0.329 -1.401,0.524 -0.068,0.029 -0.134,0.06 -0.199,0.097 -0.437,0.248 -0.853,0.568 -1.249,0.873 -0.054,0.042 -0.107,0.083 -0.157,0.131 -0.411,0.389 -0.795,0.827 -1.08,1.316 -0.269,0.461 -0.489,0.912 -0.625,1.407 -0.011,0.042 -0.224,1.337 -0.226,1.373 0,0.016 -0.003,0.032 -0.003,0.047 -0.007,0.294 0.085,1.097 0.14,1.385 0.089,0.476 0.268,0.95 0.51,1.367 0.158,0.27 0.582,0.899 0.797,1.127 0.023,0.025 0.046,0.049 0.069,0.074 0.15,0.158 0.863,0.747 1.047,0.875 0.018,0.012 0.034,0.027 0.053,0.039 0.031,0.02 0.062,0.038 0.094,0.056 0.406,0.227 0.916,0.45 1.347,0.619 0.05,0.02 0.1,0.039 0.152,0.056 1.312,0.435 2.703,0.204 3.918,-0.377 0.142,-0.076 0.272,-0.164 0.404,-0.25 0.339,-0.148 0.656,-0.339 0.945,-0.582 0.299,-0.176 0.566,-0.388 0.804,-0.631 0.017,0.035 0.03,0.07 0.048,0.104 0.94,1.791 2.702,1.7 4.409,1.371 0.954,-0.183 1.857,-0.398 2.644,-1.003 0.361,-0.278 0.67,-0.571 0.96,-0.925 0.291,-0.355 0.007,-0.135 0.169,-0.242 0.723,-0.479 1.351,-0.448 2.001,-1.101 0.005,-0.004 0.008,-0.009 0.012,-0.014 0.17,0.451 0.477,0.866 0.937,1.195 1.362,0.97 3.455,0.709 4.887,0.048 C 0.751,3.158 1.064,1.071 0,0 m 2.276,3.682 c -1.889,0.813 -17.331,3.452 -21.121,3.52 -3.79,0.067 -5.008,-1.016 -7.008,-1.625 -2,-0.609 -2.67,-3.857 -2.467,-7.106 0.203,-3.248 3.722,-5.211 3.722,-5.211 4.264,-1.353 18.34,2.978 19.771,3.52 1.43,0.541 7.909,3.789 8.44,4.466 0.532,0.677 0.551,1.624 -1.337,2.436"
           style="fill:#c77d32;fill-opacity:1;fill-rule:evenodd;stroke:none"
           id="path4708" />
      </g>
      </g>
      <g id="eye">
      <g
         id="g4710">
        <g
           id="g4712" />
        <g
           id="g4724">
          <g
             clip-path="url(#clipPath4716)"
             opacity="0.350006"
             id="g4722">
            <g
               transform="translate(313.1614,377.7438)"
               id="g4720">
              <path
                 d="m 0,0 c 0,0 -1.263,-1.263 1.444,-2.436 2.707,-1.173 1.624,-1.534 3.79,-1.715 2.165,-0.18 1.091,-0.812 -2.838,0.451 -3.93,1.264 -4.691,1.444 -6.972,3.7 -2.282,2.256 -6.613,9.294 -4.808,16.603 1.804,7.309 6.857,12.903 16.242,12.452 9.384,-0.451 11.911,-0.992 12.091,-3.248 C 19.13,23.551 11.189,21.656 6.497,21.476 1.805,21.295 -5.775,10.377 0,0"
                 style="fill:#a6dee0;fill-opacity:1;fill-rule:evenodd;stroke:none"
                 id="path4718" />
            </g>
          </g>
        </g>
      </g>
      <g
         id="g4726"
         transform="translate(316.7577,399.8)">
        <path
           d="m 0,0 c 3.026,0 5.76,-1.339 7.734,-3.5 1.947,-2.135 3.151,-5.077 3.151,-8.319 0,-3.241 -1.204,-6.184 -3.151,-8.318 -1.974,-2.162 -4.711,-3.5 -7.734,-3.5 -3.023,0 -5.758,1.337 -7.732,3.5 -1.948,2.134 -3.153,5.077 -3.153,8.318 0,3.242 1.205,6.184 3.153,8.319 C -5.758,-1.338 -3.023,0 0,0"
           style="fill:#050606;fill-opacity:1;fill-rule:evenodd;stroke:none"
           id="path4728" />
      </g>
      <g
         id="g4730"
         transform="translate(316.7578,397.6776)">
        <path
           d="M 0,0 C 2.482,0 4.725,-1.098 6.345,-2.872 7.943,-4.623 8.93,-7.037 8.93,-9.696 8.93,-12.355 7.943,-14.77 6.345,-16.521 4.725,-18.294 2.48,-19.392 0,-19.392 c -2.481,0 -4.724,1.096 -6.344,2.871 -1.597,1.751 -2.586,4.166 -2.586,6.825 0,2.659 0.989,5.073 2.586,6.824 C -4.724,-1.097 -2.481,0 0,0"
           style="fill:#212223;fill-opacity:1;fill-rule:evenodd;stroke:none"
           id="path4732" />
      </g>
      <g
         id="g4734"
         transform="translate(317.9889,399.2194)">
        <path
           d="m 0,0 c 0,0 8.076,-0.541 9.249,-10.422 0,0 0.902,-8.933 -7.986,-12.001 0,0 3.61,1.669 4.692,3.429 1.083,1.759 3.365,4.161 2.888,8.211 C 8.365,-6.733 6.497,-1.444 0,0"
           style="fill:#3d4041;fill-opacity:1;fill-rule:evenodd;stroke:none"
           id="path4736" />
      </g>
      <g
         id="g4738"
         transform="translate(319.568,396.174)">
        <path
           d="m 0,0 -9.475,-12.926 c 0,0 0.85,-1.602 2.843,-3.181 l 9.464,14.144 c 0,0 -1.005,1.557 -2.832,1.963"
           style="fill:#3d4041;fill-opacity:1;fill-rule:evenodd;stroke:none"
           id="path4740" />
      </g>
      <g
         id="g4742"
         transform="translate(322.6262,393.1567)">
        <path
           d="m 0,0 -8.668,-13.089 0.696,-0.339 8.365,12.858 z"
           style="fill:#3d4041;fill-opacity:1;fill-rule:evenodd;stroke:none"
           id="path4744" />
      </g>
      <g
         id="g4746"
         transform="translate(314.9307,390.5943)">
        <path
           d="M 0,0 C 0.27,0 0.515,-0.12 0.691,-0.313 0.865,-0.504 0.973,-0.767 0.973,-1.056 0.973,-1.346 0.865,-1.609 0.691,-1.8 0.515,-1.993 0.27,-2.113 0,-2.113 c -0.27,0 -0.515,0.12 -0.691,0.313 -0.174,0.191 -0.282,0.454 -0.282,0.744 0,0.289 0.108,0.552 0.282,0.743 C -0.515,-0.12 -0.27,0 0,0"
           style="fill:#050606;fill-opacity:1;fill-rule:evenodd;stroke:none"
           id="path4748" />
      </g>
      <g
         id="g4750"
         transform="translate(318.2693,390.8199)">
        <path
           d="M 0,0 C 0.27,0 0.515,-0.12 0.691,-0.313 0.865,-0.504 0.973,-0.767 0.973,-1.056 0.973,-1.346 0.865,-1.609 0.691,-1.8 0.515,-1.993 0.27,-2.113 0,-2.113 c -0.27,0 -0.515,0.12 -0.691,0.313 -0.174,0.191 -0.282,0.454 -0.282,0.744 0,0.289 0.108,0.552 0.282,0.743 C -0.515,-0.12 -0.27,0 0,0"
           style="fill:#050606;fill-opacity:1;fill-rule:evenodd;stroke:none"
           id="path4752" />
      </g>
      <g
         id="g4754"
         transform="translate(315.6271,387.0752)">
        <path
           d="M 0,0 C 0.27,0 0.515,-0.12 0.691,-0.313 0.865,-0.504 0.973,-0.767 0.973,-1.056 0.973,-1.346 0.865,-1.609 0.691,-1.8 0.515,-1.993 0.27,-2.113 0,-2.113 c -0.27,0 -0.515,0.12 -0.691,0.313 -0.174,0.191 -0.282,0.454 -0.282,0.744 0,0.289 0.108,0.552 0.282,0.743 C -0.515,-0.12 -0.27,0 0,0"
           style="fill:#050606;fill-opacity:1;fill-rule:evenodd;stroke:none"
           id="path4756" />
      </g>
      <g
         id="g4758"
         transform="translate(318.9658,387.3008)">
        <path
           d="M 0,0 C 0.27,0 0.515,-0.12 0.691,-0.313 0.865,-0.504 0.973,-0.767 0.973,-1.056 0.973,-1.346 0.865,-1.609 0.691,-1.8 0.515,-1.993 0.27,-2.113 0,-2.113 c -0.27,0 -0.515,0.12 -0.691,0.313 -0.174,0.191 -0.282,0.454 -0.282,0.744 0,0.289 0.108,0.552 0.282,0.743 C -0.515,-0.12 -0.27,0 0,0"
           style="fill:#050606;fill-opacity:1;fill-rule:evenodd;stroke:none"
           id="path4760" />
      </g>
      </g>
      <g
         id="g4762"
         transform="translate(302.1979,349.3947)">
        <path
           d="M 0,0 C 1.228,-0.261 2.23,-1.005 2.857,-1.997 3.476,-2.976 3.727,-4.199 3.466,-5.431 3.205,-6.664 2.478,-7.679 1.516,-8.323 0.54,-8.975 -0.679,-9.248 -1.906,-8.988 c -1.228,0.26 -2.23,1.004 -2.857,1.997 -0.619,0.979 -0.87,2.202 -0.609,3.434 0.261,1.233 0.988,2.248 1.951,2.892 C -2.446,-0.013 -1.227,0.26 0,0"
           style="fill:#050606;fill-opacity:1;fill-rule:evenodd;stroke:none"
           id="path4764" />
      </g>
      <g
         id="g4766"
         transform="translate(302.0268,348.5877)">
        <path
           d="M 0,0 C 1.008,-0.214 1.83,-0.825 2.344,-1.638 2.852,-2.442 3.058,-3.445 2.844,-4.456 2.629,-5.467 2.033,-6.3 1.243,-6.828 c -0.8,-0.535 -1.8,-0.759 -2.807,-0.546 -1.007,0.214 -1.829,0.824 -2.344,1.638 -0.507,0.804 -0.714,1.807 -0.499,2.818 0.214,1.011 0.81,1.844 1.6,2.372 C -2.006,-0.01 -1.007,0.214 0,0"
           style="fill:#212223;fill-opacity:1;fill-rule:evenodd;stroke:none"
           id="path4768" />
      </g>
      <g
         id="g4770"
         transform="translate(302.6509,349.0679)">
        <path
           d="m 0,0 c 0,0 3.235,-0.901 2.914,-4.759 0,0 -0.354,-3.475 -4.21,-3.876 0,0 1.6,0.324 2.182,0.9 0.581,0.576 1.702,1.292 1.834,2.873 C 2.853,-3.28 2.521,-1.108 0,0"
           style="fill:#3d4041;fill-opacity:1;fill-rule:evenodd;stroke:none"
           id="path4772" />
      </g>
      <g
         id="g4774"
         transform="translate(303.0464,347.774)">
        <path
           d="m 0,0 -4.889,-4.099 c 0,0 0.216,-0.683 0.898,-1.454 l 4.982,4.563 c 0,0 -0.282,0.678 -0.991,0.99"
           style="fill:#3d4041;fill-opacity:1;fill-rule:evenodd;stroke:none"
           id="path4776" />
      </g>
      <g
         id="g4778"
         transform="translate(304.0446,346.3634)">
        <path
           d="m 0,0 -4.575,-4.231 0.256,-0.188 4.433,4.169 z"
           style="fill:#3d4041;fill-opacity:1;fill-rule:evenodd;stroke:none"
           id="path4780" />
      </g>
      <g
         id="g4782"
         transform="translate(300.7138,346.0516)">
        <path
           d="M 0,0 C 0.11,-0.023 0.199,-0.09 0.255,-0.178 0.311,-0.266 0.333,-0.375 0.31,-0.485 0.286,-0.596 0.222,-0.686 0.135,-0.744 0.048,-0.802 -0.061,-0.827 -0.17,-0.803 c -0.11,0.023 -0.2,0.089 -0.256,0.178 -0.055,0.088 -0.078,0.197 -0.054,0.307 0.023,0.11 0.088,0.201 0.174,0.259 C -0.219,-0.001 -0.11,0.023 0,0"
           style="fill:#050606;fill-opacity:1;fill-rule:evenodd;stroke:none"
           id="path4784" />
      </g>
      <g
         id="g4786"
         transform="translate(302.0874,345.8499)">
        <path
           d="M 0,0 C 0.11,-0.023 0.199,-0.09 0.255,-0.178 0.311,-0.266 0.333,-0.375 0.31,-0.485 0.286,-0.596 0.221,-0.686 0.135,-0.744 0.048,-0.802 -0.061,-0.827 -0.17,-0.803 c -0.11,0.023 -0.2,0.089 -0.256,0.178 -0.055,0.088 -0.078,0.197 -0.054,0.307 0.023,0.11 0.088,0.201 0.174,0.259 C -0.219,-0.001 -0.11,0.023 0,0"
           style="fill:#050606;fill-opacity:1;fill-rule:evenodd;stroke:none"
           id="path4788" />
      </g>
      <g
         id="g4790"
         transform="translate(300.7127,344.6536)">
        <path
           d="M 0,0 C 0.11,-0.023 0.199,-0.09 0.255,-0.178 0.311,-0.266 0.333,-0.375 0.31,-0.485 0.286,-0.596 0.222,-0.686 0.135,-0.744 0.048,-0.802 -0.061,-0.827 -0.17,-0.803 c -0.11,0.023 -0.2,0.089 -0.256,0.178 -0.055,0.088 -0.078,0.197 -0.054,0.307 0.023,0.11 0.088,0.201 0.174,0.259 C -0.219,-0.001 -0.11,0.023 0,0"
           style="fill:#050606;fill-opacity:1;fill-rule:evenodd;stroke:none"
           id="path4792" />
      </g>
      <g
         id="g4794"
         transform="translate(302.0863,344.4519)">
        <path
           d="M 0,0 C 0.11,-0.023 0.199,-0.09 0.255,-0.178 0.311,-0.266 0.333,-0.375 0.31,-0.485 0.286,-0.596 0.221,-0.686 0.135,-0.744 0.048,-0.802 -0.061,-0.827 -0.17,-0.803 c -0.11,0.023 -0.2,0.089 -0.256,0.178 -0.055,0.088 -0.078,0.197 -0.054,0.307 0.023,0.11 0.088,0.201 0.174,0.259 C -0.219,-0.001 -0.11,0.023 0,0"
           style="fill:#050606;fill-opacity:1;fill-rule:evenodd;stroke:none"
           id="path4796" />
      </g>
      <g
         id="g4798"
         transform="translate(289.9325,348.5331)">
        <path
           d="M 0,0 C 0.846,0.254 1.715,0.133 2.437,-0.267 3.15,-0.662 3.717,-1.331 3.972,-2.18 4.227,-3.029 4.122,-3.9 3.746,-4.623 3.364,-5.354 2.704,-5.935 1.859,-6.189 1.014,-6.443 0.145,-6.322 -0.577,-5.922 c -0.713,0.395 -1.281,1.065 -1.536,1.913 -0.255,0.849 -0.15,1.721 0.227,2.443 C -1.504,-0.834 -0.845,-0.254 0,0"
           style="fill:#050606;fill-opacity:1;fill-rule:evenodd;stroke:none"
           id="path4800" />
      </g>
      <g
         id="g4802"
         transform="translate(290.0995,347.9774)">
        <path
           d="M 0,0 C 0.694,0.208 1.407,0.109 1.999,-0.219 2.584,-0.543 3.05,-1.092 3.259,-1.789 3.468,-2.485 3.382,-3.2 3.073,-3.793 2.76,-4.393 2.219,-4.869 1.525,-5.077 c -0.693,-0.209 -1.406,-0.11 -1.999,0.219 -0.584,0.324 -1.05,0.873 -1.26,1.569 -0.209,0.697 -0.122,1.412 0.187,2.004 C -1.234,-0.684 -0.693,-0.208 0,0"
           style="fill:#212223;fill-opacity:1;fill-rule:evenodd;stroke:none"
           id="path4804" />
      </g>
      <g
         id="g4806"
         transform="translate(290.3223,348.4844)">
        <path
           d="m 0,0 c 0,0 2.3,0.536 3.405,-1.952 0,0 0.955,-2.263 -1.288,-3.813 0,0 0.878,0.741 1.042,1.292 0.164,0.552 0.613,1.372 0.161,2.393 C 2.868,-1.06 1.93,0.168 0,0"
           style="fill:#3d4041;fill-opacity:1;fill-rule:evenodd;stroke:none"
           id="path4808" />
      </g>
      <g
         id="g4810"
         transform="translate(291.0033,347.8197)">
        <path
           d="m 0,0 -1.632,-4.18 c 0,0 0.364,-0.348 1.045,-0.594 l 1.533,4.498 C 0.946,-0.276 0.543,0.047 0,0"
           style="fill:#3d4041;fill-opacity:1;fill-rule:evenodd;stroke:none"
           id="path4812" />
      </g>
      <g
         id="g4814"
         transform="translate(292.0956,347.2866)">
        <path
           d="m 0,0 -1.393,-4.155 0.221,-0.03 1.327,4.069 z"
           style="fill:#3d4041;fill-opacity:1;fill-rule:evenodd;stroke:none"
           id="path4816" />
      </g>
      <g
         id="g4818"
         transform="translate(290.146,345.9694)">
        <path
           d="M 0,0 C 0.076,0.023 0.153,0.012 0.218,-0.024 0.281,-0.059 0.332,-0.119 0.355,-0.195 0.378,-0.271 0.368,-0.349 0.335,-0.413 0.301,-0.479 0.242,-0.53 0.166,-0.553 0.091,-0.576 0.013,-0.565 -0.052,-0.529 c -0.063,0.035 -0.114,0.095 -0.137,0.171 -0.023,0.076 -0.013,0.153 0.02,0.218 C -0.134,-0.075 -0.076,-0.023 0,0"
           style="fill:#050606;fill-opacity:1;fill-rule:evenodd;stroke:none"
           id="path4820" />
      </g>
      <g
         id="g4822"
         transform="translate(291.0615,346.3088)">
        <path
           d="M 0,0 C 0.076,0.023 0.153,0.012 0.218,-0.024 0.281,-0.059 0.332,-0.119 0.355,-0.195 0.378,-0.271 0.368,-0.349 0.335,-0.413 0.301,-0.479 0.242,-0.53 0.166,-0.553 0.091,-0.576 0.013,-0.565 -0.052,-0.529 c -0.063,0.035 -0.114,0.095 -0.137,0.171 -0.023,0.076 -0.013,0.154 0.02,0.218 C -0.134,-0.075 -0.076,-0.023 0,0"
           style="fill:#050606;fill-opacity:1;fill-rule:evenodd;stroke:none"
           id="path4824" />
      </g>
      <g
         id="g4826"
         transform="translate(290.6175,345.1065)">
        <path
           d="M 0,0 C 0.076,0.023 0.153,0.012 0.218,-0.024 0.281,-0.059 0.332,-0.119 0.355,-0.195 0.378,-0.271 0.368,-0.349 0.335,-0.413 0.301,-0.479 0.242,-0.53 0.166,-0.553 0.091,-0.576 0.013,-0.565 -0.052,-0.529 c -0.063,0.035 -0.114,0.095 -0.137,0.171 -0.023,0.076 -0.013,0.153 0.02,0.218 C -0.134,-0.075 -0.076,-0.023 0,0"
           style="fill:#050606;fill-opacity:1;fill-rule:evenodd;stroke:none"
           id="path4828" />
      </g>
      <g
         id="g4830"
         transform="translate(291.533,345.446)">
        <path
           d="M 0,0 C 0.076,0.023 0.153,0.012 0.218,-0.024 0.281,-0.059 0.332,-0.119 0.355,-0.195 0.378,-0.271 0.368,-0.349 0.335,-0.413 0.301,-0.479 0.242,-0.53 0.166,-0.553 0.091,-0.576 0.013,-0.565 -0.052,-0.529 c -0.063,0.035 -0.114,0.095 -0.137,0.171 -0.023,0.076 -0.013,0.154 0.02,0.218 C -0.134,-0.075 -0.076,-0.023 0,0"
           style="fill:#050606;fill-opacity:1;fill-rule:evenodd;stroke:none"
           id="path4832" />
      </g>
      <g
         id="g4834"
         transform="translate(283.2262,350.2458)">
        <path
           d="M 0,0 C 0.53,0.159 1.075,0.083 1.527,-0.167 1.973,-0.415 2.329,-0.834 2.489,-1.366 2.648,-1.897 2.583,-2.444 2.347,-2.896 2.108,-3.354 1.694,-3.718 1.165,-3.877 0.635,-4.036 0.091,-3.961 -0.362,-3.71 c -0.446,0.248 -0.802,0.667 -0.962,1.199 -0.16,0.531 -0.093,1.077 0.142,1.53 C -0.943,-0.522 -0.53,-0.159 0,0"
           style="fill:#050606;fill-opacity:1;fill-rule:evenodd;stroke:none"
           id="path4836" />
      </g>
      <g
         id="g4838"
         transform="translate(283.3308,349.8977)">
        <path
           d="M 0,0 C 0.435,0.131 0.882,0.068 1.253,-0.137 1.619,-0.34 1.911,-0.684 2.042,-1.121 2.173,-1.557 2.119,-2.005 1.925,-2.376 1.729,-2.752 1.39,-3.05 0.956,-3.181 0.521,-3.311 0.074,-3.25 -0.297,-3.044 c -0.366,0.203 -0.658,0.548 -0.789,0.984 -0.131,0.436 -0.077,0.884 0.117,1.255 C -0.773,-0.429 -0.434,-0.131 0,0"
           style="fill:#212223;fill-opacity:1;fill-rule:evenodd;stroke:none"
           id="path4840" />
      </g>
      <g
         id="g4842"
         transform="translate(283.4704,350.2154)">
        <path
           d="m 0,0 c 0,0 1.441,0.336 2.133,-1.223 0,0 0.599,-1.418 -0.807,-2.389 0,0 0.55,0.464 0.653,0.81 0.103,0.345 0.384,0.859 0.101,1.499 C 1.797,-0.664 1.209,0.105 0,0"
           style="fill:#3d4041;fill-opacity:1;fill-rule:evenodd;stroke:none"
           id="path4844" />
      </g>
      <g
         id="g4846"
         transform="translate(283.897,349.799)">
        <path
           d="m 0,0 -1.022,-2.619 c 0,0 0.228,-0.218 0.654,-0.372 l 0.961,2.818 C 0.593,-0.173 0.34,0.03 0,0"
           style="fill:#3d4041;fill-opacity:1;fill-rule:evenodd;stroke:none"
           id="path4848" />
      </g>
      <g
         id="g4850"
         transform="translate(284.5813,349.465)">
        <path
           d="m 0,0 -0.873,-2.603 0.139,-0.019 0.831,2.549 z"
           style="fill:#3d4041;fill-opacity:1;fill-rule:evenodd;stroke:none"
           id="path4852" />
      </g>
      <g
         id="g4854"
         transform="translate(283.3599,348.6397)">
        <path
           d="M 0,0 C 0.047,0.014 0.096,0.007 0.136,-0.015 0.176,-0.037 0.208,-0.075 0.222,-0.122 0.237,-0.17 0.231,-0.218 0.21,-0.259 0.188,-0.3 0.151,-0.332 0.104,-0.347 0.057,-0.361 0.008,-0.354 -0.032,-0.332 c -0.04,0.023 -0.072,0.06 -0.086,0.108 -0.015,0.047 -0.009,0.096 0.012,0.136 C -0.084,-0.047 -0.047,-0.014 0,0"
           style="fill:#050606;fill-opacity:1;fill-rule:evenodd;stroke:none"
           id="path4856" />
      </g>
      <g
         id="g4858"
         transform="translate(283.9335,348.8524)">
        <path
           d="M 0,0 C 0.047,0.014 0.096,0.007 0.136,-0.015 0.176,-0.037 0.208,-0.075 0.222,-0.122 0.237,-0.17 0.231,-0.218 0.21,-0.259 0.188,-0.3 0.151,-0.332 0.104,-0.347 0.057,-0.361 0.008,-0.354 -0.032,-0.332 c -0.04,0.023 -0.072,0.06 -0.086,0.108 -0.015,0.047 -0.009,0.096 0.012,0.136 C -0.084,-0.047 -0.047,-0.014 0,0"
           style="fill:#050606;fill-opacity:1;fill-rule:evenodd;stroke:none"
           id="path4860" />
      </g>
      <g
         id="g4862"
         transform="translate(283.6553,348.0992)">
        <path
           d="M 0,0 C 0.047,0.014 0.096,0.007 0.136,-0.015 0.176,-0.037 0.208,-0.075 0.222,-0.122 0.237,-0.17 0.231,-0.218 0.21,-0.259 0.188,-0.3 0.151,-0.332 0.104,-0.347 0.057,-0.361 0.008,-0.354 -0.032,-0.332 c -0.04,0.023 -0.072,0.06 -0.086,0.108 -0.015,0.047 -0.009,0.096 0.012,0.136 C -0.084,-0.047 -0.047,-0.014 0,0"
           style="fill:#050606;fill-opacity:1;fill-rule:evenodd;stroke:none"
           id="path4864" />
      </g>
      <g
         id="g4866"
         transform="translate(284.2289,348.3118)">
        <path
           d="M 0,0 C 0.047,0.014 0.096,0.007 0.136,-0.015 0.176,-0.037 0.208,-0.075 0.222,-0.122 0.237,-0.17 0.231,-0.218 0.21,-0.259 0.188,-0.3 0.151,-0.332 0.104,-0.347 0.057,-0.361 0.008,-0.354 -0.032,-0.332 c -0.04,0.023 -0.072,0.06 -0.086,0.108 -0.015,0.047 -0.009,0.096 0.012,0.136 C -0.084,-0.047 -0.047,-0.014 0,0"
           style="fill:#050606;fill-opacity:1;fill-rule:evenodd;stroke:none"
           id="path4868" />
      </g>
      <g
         id="g4870"
         transform="translate(311.9025,350.7922)">
        <path
           d="M 0,0 C 0.966,0 1.839,-0.427 2.469,-1.117 3.091,-1.799 3.475,-2.738 3.475,-3.773 3.475,-4.808 3.091,-5.747 2.469,-6.429 1.839,-7.119 0.965,-7.546 0,-7.546 c -0.965,0 -1.838,0.427 -2.468,1.117 -0.622,0.682 -1.007,1.621 -1.007,2.656 0,1.035 0.385,1.974 1.007,2.656 C -1.838,-0.427 -0.965,0 0,0"
           style="fill:#050606;fill-opacity:1;fill-rule:evenodd;stroke:none"
           id="path4872" />
      </g>
      <g
         id="g4874"
         transform="translate(311.9025,350.1147)">
        <path
           d="m 0,0 c 0.792,0 1.509,-0.351 2.026,-0.917 0.51,-0.559 0.825,-1.329 0.825,-2.178 0,-0.849 -0.315,-1.62 -0.825,-2.179 C 1.509,-5.84 0.792,-6.191 0,-6.191 c -0.792,0 -1.508,0.35 -2.025,0.917 -0.51,0.559 -0.826,1.33 -0.826,2.179 0,0.849 0.316,1.619 0.826,2.178 C -1.508,-0.35 -0.792,0 0,0"
           style="fill:#212223;fill-opacity:1;fill-rule:evenodd;stroke:none"
           id="path4876" />
      </g>
      <g
         id="g4878"
         transform="translate(312.2955,350.6069)">
        <path
           d="m 0,0 c 0,0 2.578,-0.173 2.953,-3.327 0,0 0.288,-2.852 -2.55,-3.831 0,0 1.153,0.532 1.498,1.094 0.346,0.562 1.075,1.329 0.922,2.622 C 2.671,-2.149 2.074,-0.461 0,0"
           style="fill:#3d4041;fill-opacity:1;fill-rule:evenodd;stroke:none"
           id="path4880" />
      </g>
      <g
         id="g4882"
         transform="translate(312.7997,349.6346)">
        <path
           d="m 0,0 -3.025,-4.127 c 0,0 0.272,-0.511 0.908,-1.015 l 3.021,4.515 C 0.904,-0.627 0.583,-0.13 0,0"
           style="fill:#3d4041;fill-opacity:1;fill-rule:evenodd;stroke:none"
           id="path4884" />
      </g>
      <g
         id="g4886"
         transform="translate(313.776,348.6714)">
        <path
           d="m 0,0 -2.767,-4.179 0.222,-0.108 2.671,4.105 z"
           style="fill:#3d4041;fill-opacity:1;fill-rule:evenodd;stroke:none"
           id="path4888" />
      </g>
      <g
         id="g4890"
         transform="translate(311.3192,347.8534)">
        <path
           d="m 0,0 c 0.086,0 0.164,-0.038 0.221,-0.1 0.055,-0.061 0.09,-0.145 0.09,-0.237 0,-0.093 -0.035,-0.177 -0.09,-0.238 C 0.164,-0.636 0.086,-0.674 0,-0.674 c -0.086,0 -0.164,0.038 -0.221,0.099 -0.055,0.061 -0.09,0.145 -0.09,0.238 0,0.092 0.035,0.176 0.09,0.237 C -0.164,-0.038 -0.086,0 0,0"
           style="fill:#050606;fill-opacity:1;fill-rule:evenodd;stroke:none"
           id="path4892" />
      </g>
      <g
         id="g4894"
         transform="translate(312.3851,347.9254)">
        <path
           d="m 0,0 c 0.086,0 0.164,-0.038 0.221,-0.1 0.055,-0.061 0.09,-0.145 0.09,-0.237 0,-0.093 -0.035,-0.177 -0.09,-0.238 C 0.164,-0.636 0.086,-0.674 0,-0.674 c -0.086,0 -0.164,0.038 -0.221,0.099 -0.055,0.061 -0.09,0.145 -0.09,0.238 0,0.092 0.035,0.176 0.09,0.237 C -0.164,-0.038 -0.086,0 0,0"
           style="fill:#050606;fill-opacity:1;fill-rule:evenodd;stroke:none"
           id="path4896" />
      </g>
      <g
         id="g4898"
         transform="translate(311.5416,346.7299)">
        <path
           d="m 0,0 c 0.086,0 0.164,-0.038 0.221,-0.1 0.055,-0.061 0.09,-0.145 0.09,-0.237 0,-0.093 -0.035,-0.177 -0.09,-0.238 C 0.164,-0.636 0.086,-0.674 0,-0.674 c -0.086,0 -0.164,0.038 -0.221,0.099 -0.055,0.061 -0.09,0.145 -0.09,0.238 0,0.092 0.035,0.176 0.09,0.237 C -0.164,-0.038 -0.086,0 0,0"
           style="fill:#050606;fill-opacity:1;fill-rule:evenodd;stroke:none"
           id="path4900" />
      </g>
      <g
         id="g4902"
         transform="translate(312.6074,346.8019)">
        <path
           d="m 0,0 c 0.086,0 0.164,-0.038 0.221,-0.1 0.055,-0.061 0.09,-0.145 0.09,-0.237 0,-0.093 -0.035,-0.177 -0.09,-0.238 C 0.164,-0.636 0.086,-0.674 0,-0.674 c -0.086,0 -0.164,0.038 -0.221,0.099 -0.055,0.061 -0.09,0.145 -0.09,0.238 0,0.092 0.035,0.176 0.09,0.237 C -0.164,-0.038 -0.086,0 0,0"
           style="fill:#050606;fill-opacity:1;fill-rule:evenodd;stroke:none"
           id="path4904" />
      </g>
      <g
         id="g4906">
        <g
           id="g4908" />
        <g
           id="g4920">
          <g
             clip-path="url(#clipPath4912)"
             id="g4918">
            <g
               transform="translate(271.2027,372.1953)"
               id="g4916">
              <path
                 d="m 0,0 c -0.036,0 -0.073,0.015 -0.1,0.044 -0.05,0.055 -0.047,0.141 0.008,0.191 l 13.49,12.406 c 0.124,0.122 3.045,3.123 -1.404,7.748 -0.052,0.053 -0.05,0.139 0.004,0.191 0.053,0.051 0.139,0.05 0.191,-0.004 4.641,-4.823 1.429,-8.098 1.396,-8.131 L 0.092,0.036 C 0.066,0.012 0.033,0 0,0"
                 style="fill:#e6ccce;fill-opacity:1;fill-rule:nonzero;stroke:none"
                 id="path4914" />
            </g>
          </g>
        </g>
      </g>
      <g
         id="g4922">
        <g
           id="g4924" />
        <g
           id="g4936">
          <g
             clip-path="url(#clipPath4928)"
             id="g4934">
            <g
               transform="translate(290.9556,381.6577)"
               id="g4932">
              <path
                 d="m 0,0 c -0.044,0 -0.087,0.021 -0.113,0.061 -0.295,0.447 -2.879,4.384 -2.879,5.048 0,0.923 0.407,1.781 1.208,2.553 l 7.562,7.492 C 5.832,15.206 5.917,15.207 5.97,15.153 6.022,15.1 6.022,15.014 5.969,14.962 L -1.595,7.468 C -2.343,6.748 -2.721,5.955 -2.721,5.109 -2.721,4.671 -0.983,1.871 0.113,0.21 0.154,0.148 0.137,0.063 0.075,0.022 0.052,0.007 0.026,0 0,0"
                 style="fill:#e6ccce;fill-opacity:1;fill-rule:nonzero;stroke:none"
                 id="path4930" />
            </g>
          </g>
        </g>
      </g>
      <g
         id="g4938"
         transform="translate(270.6388,371.2245)">
        <path
           d="m 0,0 c 0,0 1.061,-0.361 3.068,1.399 2.008,1.759 7.034,6.794 7.034,6.794 l 3.937,3.906 c 0,0 0.639,1.734 1.59,1.134 0.951,-0.6 0.951,-0.87 1.696,-1.953 0.744,-1.084 0.925,-1.873 1.738,-1.873 0.812,0 1.141,1.087 1.141,1.087 0,0 -2.52,3.222 -2.395,3.448 0.124,0.225 0.154,1.029 0.328,2.134 0.174,1.106 7.948,8.143 7.948,8.143 0,0 0.944,0.619 0.592,1.318 -0.351,0.698 -2.545,0.089 -2.545,0.089 0,0 -1.573,-0.812 -2.87,-1.895 -1.298,-1.082 -3.828,-3.754 -4.221,-4.009 -0.393,-0.254 -1.212,-0.791 -1.412,-0.557 -0.199,0.235 -2.769,1.559 -3.068,2.385 -0.298,0.827 -4.9,5.314 -5.793,5.362 -0.894,0.048 -1.422,0.338 -1.692,0 -0.271,-0.338 0.541,-1.935 1.421,-2.693 0.88,-0.758 4.973,-5.194 5.329,-5.818 0.356,-0.625 1.141,-2.086 0.41,-3.183 C 11.505,14.121 4.389,6.552 4.389,6.552 4.389,6.552 -2.436,1.512 0,0"
           style="fill:#cedad8;fill-opacity:1;fill-rule:evenodd;stroke:none"
           id="path4940" />
      </g>
      <g
         id="g4942"
         transform="translate(271.0734,372.0171)">
        <path
           d="m 0,0 c -0.293,0 -0.585,0.118 -0.799,0.351 -0.404,0.441 -0.374,1.126 0.067,1.53 l 11.446,10.489 0.087,0.054 c 0.017,0.01 1.967,1.249 2.204,3.017 0.128,0.959 -0.288,1.967 -1.239,2.996 -4.06,4.4 -6.543,7.51 -6.568,7.54 -0.372,0.468 -0.295,1.15 0.173,1.522 0.467,0.373 1.149,0.295 1.521,-0.172 0.024,-0.031 2.464,-3.084 6.466,-7.421 1.413,-1.531 2.016,-3.136 1.791,-4.77 -0.347,-2.523 -2.607,-4.156 -3.115,-4.494 L 0.731,0.284 C 0.523,0.094 0.261,0 0,0"
           style="fill:#b1444e;fill-opacity:1;fill-rule:nonzero;stroke:none"
           id="path4944" />
      </g>
      <g
         id="g4946"
         transform="translate(275.4021,378.1193)">
        <path
           d="M 0,0 -3.224,-2.954 C -3.419,-3.716 -3.515,-4.528 -3.312,-5.14 l 3.347,3.065 C -0.113,-1.622 -0.229,-0.907 0,0"
           style="fill:#e6ccce;fill-opacity:1;fill-rule:nonzero;stroke:none"
           id="path4948" />
      </g>
      <g
         id="g4950"
         transform="translate(282.4246,384.4574)">
        <path
           d="M 0,0 C -0.227,-0.176 -0.384,-0.275 -0.389,-0.278 L -0.452,-0.317 -3.193,-2.829 C -3.394,-3.593 -3.501,-4.416 -3.306,-5.04 L 0.04,-1.976 C -0.099,-1.534 -0.201,-0.854 0,0"
           style="fill:#e6ccce;fill-opacity:1;fill-rule:nonzero;stroke:none"
           id="path4952" />
      </g>
      <g
         id="g4954"
         transform="translate(283.9921,391.9477)">
        <path
           d="m 0,0 c -0.57,-0.107 -1.412,-0.107 -2.423,0.357 0.472,-0.524 0.97,-1.072 1.496,-1.642 0.521,-0.564 0.888,-1.125 1.106,-1.681 0.527,-0.211 1.142,-0.414 1.735,-0.506 -0.164,1.1 -0.728,2.186 -1.7,3.239 C 0.141,-0.154 0.072,-0.078 0,0"
           style="fill:#e6ccce;fill-opacity:1;fill-rule:nonzero;stroke:none"
           id="path4956" />
      </g>
      <g
         id="g4958"
         transform="translate(277.9958,398.8191)">
        <path
           d="m 0,0 c -0.43,-0.029 -0.957,0.013 -1.559,0.219 -0.143,-0.266 -0.124,-0.602 0.076,-0.853 0.052,-0.065 0.692,-0.864 1.811,-2.179 C 1.081,-3.134 2.095,-3.48 2.947,-3.473 1.476,-1.791 0.456,-0.559 0,0"
           style="fill:#e6ccce;fill-opacity:1;fill-rule:nonzero;stroke:none"
           id="path4960" />
      </g>
      <g
         id="g4962"
         transform="translate(290.5139,380.6314)">
        <path
           d="m 0,0 c -0.342,0 -0.678,0.161 -0.888,0.462 -0.078,0.111 -1.923,2.749 -2.92,4.354 -1.128,1.815 0.171,4.029 1.117,5.051 l 7.978,7.811 C 5.714,18.096 6.399,18.09 6.819,17.661 7.237,17.234 7.229,16.548 6.802,16.13 L -1.115,8.381 C -1.434,8.023 -2.418,6.681 -1.969,5.959 -1.003,4.404 0.867,1.73 0.886,1.704 1.229,1.214 1.11,0.539 0.62,0.196 0.431,0.063 0.214,0 0,0"
           style="fill:#b1444e;fill-opacity:1;fill-rule:nonzero;stroke:none"
           id="path4964" />
      </g>
      <g
         id="g4966"
         transform="translate(295.6501,397.7321)">
        <path
           d="m 0,0 -2.559,-2.505 c 0.181,-0.434 0.338,-1.139 0.101,-2.072 l 2.269,2.22 C -0.018,-1.672 0.147,-0.727 0,0"
           style="fill:#e6ccce;fill-opacity:1;fill-rule:nonzero;stroke:none"
           id="path4968" />
      </g>
      <g
         id="g4970"
         transform="translate(290.8714,393.0542)">
        <path
           d="m 0,0 -2.424,-2.373 c 0.217,-0.348 0.481,-0.962 0.429,-1.842 0.167,0.232 0.299,0.383 0.308,0.393 l 1.67,1.634 C 0.075,-1.563 0.147,-0.701 0,0"
           style="fill:#e6ccce;fill-opacity:1;fill-rule:nonzero;stroke:none"
           id="path4972" />
      </g>
      <g
         id="g4974"
         transform="translate(289.2849,382.1234)">
        <path
           d="M 0,0 C 0.515,0 1.198,-0.137 1.964,-0.643 2.034,-0.42 2.006,-0.167 1.859,0.041 1.75,0.199 1.151,1.057 0.485,2.042 -0.045,2.358 -1.117,2.934 -2.038,3.043 -1.397,2.041 -0.557,0.809 0,0"
           style="fill:#e6ccce;fill-opacity:1;fill-rule:nonzero;stroke:none"
           id="path4976" />
      </g>
      <g
         id="cap"
         transform="translate(0,1.5)">
        <g
           id="g4978"
           transform="translate(290.9555,459.0789)">
          <path
             d="m 0,0 c 1.208,-2.296 2.609,-1.823 4.028,-3.306 1.419,-1.482 1.591,-1.305 2.658,-1.305 1.067,0 1.103,0 1.972,-1.241 0.868,-1.242 2.345,-2.843 3.735,-2.486 1.389,0.358 1.704,0.884 2.256,0 0.552,-0.884 3.41,-3.367 3.41,-3.367 0,0 1.671,1.951 1.889,0 0.219,-1.951 0.041,-4.256 1.815,-3.901 1.773,0.354 2.443,1.523 3.881,-0.037 1.439,-1.559 3.213,-1.499 4.809,-2.416 1.596,-0.917 1.95,0.306 3.014,-1.724 1.065,-2.03 4.079,-1.498 5.498,-2.74 1.419,-1.241 0.307,-3.015 2.193,-4.256 1.886,-1.242 3.296,-1.242 6.049,-1.242 2.754,0 3.463,0.355 5.236,0 1.774,-0.354 1.065,0.355 3.725,0 2.66,-0.354 7.093,-1.773 7.093,-1.773 0,0 0.71,-0.709 0.887,0 0.178,0.709 0,2.838 0,2.838 0,0 0.335,0.177 0.079,1.064 -0.256,0.886 0.096,2.685 0.096,2.685 0,0 -0.208,0.706 -4.891,5.04 -4.683,4.334 -9.651,4.157 -9.651,4.157 0,0 -32.137,13.369 -35.132,14.221 C 11.654,1.064 6.748,3.397 6.009,3.029 5.27,2.66 -0.674,1.282 0,0"
             style="fill:#a6dee0;fill-opacity:1;fill-rule:nonzero;stroke:none"
             id="path4980" />
        </g>
        <g
           id="g4982"
           transform="translate(374.9921,477.7369)">
          <path
             d="m 0,0 c -0.282,4.097 -3.952,13.607 -6.508,19.695 -2.556,6.088 -4.255,9.422 -10.959,10.877 -6.704,1.455 -17.484,-0.132 -22.162,-1.088 -4.678,-0.956 -14.519,-5.13 -20.093,-9.272 -5.574,-4.142 -3.325,-2.87 -4.472,-4.719 -1.147,-1.849 -1.006,-1.095 -1.919,-2.023 -0.913,-0.927 -1.492,-1.851 -2.154,-2.777 -0.663,-0.925 -0.995,-1.262 -2.57,-3.115 -1.576,-1.852 -2.747,-1.861 -2.747,-1.861 l 1.467,-5.929 9.965,-4.974 -1.918,4.365 c 0.265,0.538 -0.782,2.421 0.708,4.524 1.49,2.103 -3.823,7.668 4.648,4.971 8.47,-2.697 9.382,-1.602 12.419,-4.926 3.037,-3.323 4.891,-5.066 7.072,-5.802 2.181,-0.737 3.526,-1.563 4.099,0.031 0.574,1.594 -0.103,2.592 -3.129,4.41 -3.025,1.818 -11.405,10.455 -11.405,10.455 0,0 -1.319,1.496 -2.326,1.991 -1.008,0.494 -3.527,1.646 0.405,1.676 3.932,0.03 5.172,2.047 8.885,-2.108 3.712,-4.155 3.966,-4.464 5.493,-7.267 1.527,-2.803 0.688,-2.475 2.794,-4.299 2.105,-1.825 2.338,0.603 4.887,-4.565 2.549,-5.168 2.796,-4.664 3.07,-7.674 0.274,-3.009 0.298,-6.189 2.201,-3.413 1.903,2.775 2.151,3.195 3.133,6.131 0.981,2.936 1.474,3.19 1.251,5.531 -0.223,2.341 1.195,2.854 -1.078,4.677 -2.272,1.824 -1.521,2.021 -5.55,3.693 -4.028,1.673 -7.617,0.558 -9.745,5.311 -2.128,4.752 -3.725,5.744 -1.384,6.013 2.34,0.269 2.12,-3.749 3.135,-5.247 1.016,-1.498 1.021,-2.167 2.198,-2.995 0.441,-0.31 0.597,-0.704 0.638,-0.847 -0.035,0.192 -0.121,0.971 0.042,2.944 0.359,4.353 -0.724,3.675 0.671,7.367 1.394,3.692 0.305,3.935 2.222,4.869 1.917,0.935 2.082,1.271 4.675,1.291 2.594,0.02 2.41,2.11 7.29,-1.451 4.879,-3.56 4.037,-2.814 5.989,-6.397 1.951,-3.582 2.128,-4.836 1.963,-5.172 -0.165,-0.336 -2.845,-0.272 -5.619,1.547 -2.773,1.82 -3.623,3.57 -7.221,3.627 -3.598,0.056 -5.612,0.877 -6.441,-0.133 -0.829,-1.01 -1.992,-2.023 1.121,-4.426 3.114,-2.402 4.039,-3.064 5.891,-4.556 1.852,-1.492 5.129,-3.308 6.063,-5.142 0.934,-1.833 1.091,-0.41 1.112,-3.17 0.021,-2.761 0.8,-6.185 0.97,-6.519 0.169,-0.333 0.524,-3.008 1.512,-0.825 0.987,2.183 1.137,4.526 2.378,6.377 1.241,1.85 -0.547,5.852 3.496,2.285 4.043,-3.567 5.624,-2.384 4.387,-4.736 -1.237,-2.352 -2.525,-3.282 -4.316,-4.55 -1.792,-1.269 -2.923,-0.775 -2.996,-2.198 -0.072,-1.423 -0.062,-2.762 -0.062,-2.762 l -0.79,-0.415 c 0.231,-1.008 0.473,-1.968 0.473,-1.968 0,0 7.975,-3.582 8.958,-0.814 C 1.1,-12.709 0.282,-4.097 0,0"
             style="fill:#ed1e27;fill-opacity:1;fill-rule:nonzero;stroke:none"
             id="path4984" />
        </g>
        <g
           id="g4986"
           transform="translate(366.5306,468.2187)">
          <path
             d="M 0,0 C 0.073,1.423 1.204,0.929 2.995,2.198 4.787,3.467 6.074,4.397 7.311,6.749 8.548,9.101 6.968,7.917 2.925,11.484 -1.118,15.051 0.669,11.049 -0.572,9.199 -1.813,7.349 -1.962,5.005 -2.95,2.822 -3.937,0.639 -4.292,3.314 -4.462,3.647 c -0.17,0.334 -0.949,3.758 -0.97,6.519 -0.021,2.761 -0.177,1.337 -1.111,3.171 -0.934,1.833 -4.211,3.649 -6.063,5.141 -1.852,1.492 -2.777,2.154 -5.891,4.557 -3.114,2.402 -1.95,3.415 -1.121,4.425 0.829,1.011 2.843,0.189 6.441,0.133 3.598,-0.057 4.448,-1.807 7.221,-3.627 2.773,-1.819 5.454,-1.882 5.619,-1.547 0.164,0.336 -0.012,1.59 -1.964,5.173 -1.951,3.582 -1.109,2.836 -5.989,6.396 -4.879,3.561 -4.696,1.471 -7.289,1.451 -2.594,-0.02 -2.759,-0.355 -4.676,-1.29 -1.917,-0.935 -0.827,-1.178 -2.222,-4.87 -1.394,-3.692 -0.312,-3.014 -0.671,-7.367 -0.162,-1.973 -0.076,-2.752 -0.042,-2.944 0.019,-0.066 0.013,-0.073 0,0 -0.041,0.143 -0.196,0.537 -0.637,0.847 -1.178,0.828 -1.183,1.497 -2.198,2.995 -1.016,1.499 -0.795,5.516 -3.136,5.247 -2.34,-0.268 -0.743,-1.26 1.385,-6.013 2.127,-4.753 5.716,-3.638 9.745,-5.31 4.029,-1.673 3.277,-1.87 5.55,-3.693 2.273,-1.824 0.854,-2.337 1.078,-4.677 0.223,-2.341 -0.27,-2.596 -1.252,-5.532 -0.981,-2.935 -1.229,-3.356 -3.132,-6.131 -1.904,-2.775 -1.928,0.404 -2.202,3.414 -0.273,3.009 -0.521,2.506 -3.07,7.673 -2.549,5.168 -2.781,2.74 -4.887,4.565 -2.105,1.824 -1.266,1.496 -2.793,4.299 -1.528,2.804 -1.781,3.112 -5.494,7.267 -3.712,4.155 -4.952,2.138 -8.884,2.108 -3.932,-0.03 -1.413,-1.182 -0.406,-1.676 1.008,-0.495 2.327,-1.99 2.327,-1.99 0,0 8.379,-8.638 11.405,-10.456 3.026,-1.817 3.703,-2.816 3.129,-4.41 -0.574,-1.594 -1.918,-0.768 -4.099,-0.031 -2.181,0.736 -4.035,2.479 -7.072,5.803 -3.037,3.323 -3.949,2.229 -12.42,4.925 -8.47,2.697 -3.157,-2.868 -4.647,-4.971 -1.49,-2.103 -0.443,-3.985 -0.709,-4.523 l 1.918,-4.365 14.474,-7.224 25.711,-3.403 c 0,0 1.05,1.753 2.393,4.369 1.344,2.616 3.442,9.48 3.442,9.48 0.696,-3.425 1.774,-2.245 4.233,-6.577 2.459,-4.332 2.106,-1.908 2.367,-3.161 0.065,-0.314 0.141,-0.657 0.218,-0.994 l 0.79,0.416 c 0,0 -0.01,1.338 0.063,2.761"
             style="fill:#8a181d;fill-opacity:1;fill-rule:nonzero;stroke:none"
             id="path4988" />
        </g>
        <g
           id="g4990"
           transform="translate(317.1515,447.421)">
          <path
             d="m 0,0 -0.542,2.807 -1.627,1.157 -2.746,-0.85 -2.289,0.164 -1.047,2.044 -1.15,1.956 -1.798,0.545 -1.972,0.124 -1.444,2.237 -3.22,-0.69 -0.996,3.009 -2.801,0.137 -2.523,0.229 -1.412,2.476 -1.656,1.579 -1.595,1.571 -0.723,2.186 1.247,1.764 1.159,1.472 -1.335,2.455 3.16,0.533 0.679,2.131 -0.375,2.443 -0.378,2.098 0.76,2.451 2.479,0.976 0.711,2.455 2.729,-0.665 1.173,-1.904 1.948,-0.549 0.954,-1.72 1.972,-1.119 1.97,-0.275 1.482,-1.972 1.891,-0.732 1.738,-1.131 1.591,-1.527 2.523,0.919 1.432,-1.917 2.515,0.836 1.073,-2.648 1.788,-0.713 2.796,1.139 1.631,-0.944 1.049,-2.632 1.734,-0.965 2.242,0.451 1.649,-1.628 2.17,-0.362 2.271,-0.19 1.547,-1.865 2.635,0.969 1.965,-0.426 2.228,-0.636 1.882,-2.321 2.321,-0.212 2.573,-0.438 0.944,2.779 1.772,0.945 1.036,-0.872 2.098,-0.992 1.173,-1.776 0.56,-1.754 -0.403,-2.226 -2.257,-1.543 1.615,-2.33 -1.178,-2.153 0.078,-2.198 -0.593,-2.147 -0.073,-1.384 0.009,-1.59 -0.739,-1.864 -0.974,-2.059 -2.191,-0.141 -1.884,-0.383 -2.02,0.516 -1.984,-0.824 -2.079,-0.231 -1.976,-0.9 -2.111,-0.178 -2.024,0.897 -1.836,1.091 -2.574,-1.557 -2.065,0.399 -1.334,2.144 -1.841,0.792 -2.054,0.349 -1.441,1.659 -2.531,-0.589 -1.574,1.376 -1.756,0.999 -1.156,2.124 z"
             style="fill:#dbdcd9;fill-opacity:1;fill-rule:nonzero;stroke:none"
             id="path4992" />
        </g>
        <g
           id="g4994"
           transform="translate(333.5133,439.2281)">
          <path
             d="m 0,0 2.066,-0.4 2.573,1.558 1.836,-1.091 2.024,-0.897 2.111,0.178 1.976,0.9 2.079,0.231 1.984,0.824 2.02,-0.517 1.884,0.384 2.191,0.141 0.974,2.059 0.739,1.864 -0.009,1.589 0.073,1.385 0.593,2.147 -0.078,2.198 1.178,2.153 -1.615,2.33 2.257,1.543 0.403,2.226 -0.56,1.754 -1.173,1.775 -2.097,0.993 -1.036,0.872 -1.773,-0.945 -0.944,-2.78 -2.573,0.438 -2.321,0.213 -1.881,2.321 -2.229,0.635 -1.965,0.427 -2.634,-0.969 -1.547,1.865 -2.272,0.19 -2.169,0.362 -1.65,1.627 -2.241,-0.45 -1.735,0.964 -0.295,0.742 c -1.76,0.75 -2.429,1.41 -2.64,1.267 -0.333,-0.226 0.132,-2.676 0.132,-2.676 0,0 10.719,-1.369 0.238,-2.006 -2.047,-0.125 -5.252,1.187 -2.894,-0.803 2.358,-1.99 2.915,-1.986 2.915,-1.986 0,0 0.096,2.089 0.997,0.996 0.901,-1.093 1.132,-2.154 1.132,-2.154 0,0 1.566,-0.655 1.569,-0.961 0.002,-0.307 -3.703,2.784 0.006,-0.867 3.709,-3.651 3.49,-4.099 3.49,-4.099 l -2.008,-0.015 c 0,0 -2.117,-0.351 -1.886,-1.464 0.232,-1.114 -1.221,-3.245 -1.495,-2.578 -0.275,0.668 -0.511,2.339 -0.949,1.332 -0.439,-1.007 1.804,-2.552 -0.87,-3.019 -2.673,-0.466 -4.456,-0.814 -5.131,-0.039 -0.675,0.776 -0.798,2.337 -1.136,2.781 -0.338,0.443 -3.813,2.536 -4.032,2.089 -0.22,-0.448 0.901,-1.109 0.011,-1.45 -0.89,-0.342 -4.978,1.189 -0.014,-2.12 l 4.963,-3.309 2.644,-1.095 c 0,0 -1.071,-0.343 0.719,-0.999 1.79,-0.656 1.446,0.569 2.684,-0.872 1.238,-1.441 1.91,-1.882 1.91,-1.882 l 1.673,0.013 0.633,-1.987 1.841,-0.792 z"
             style="fill:#c4c5c3;fill-opacity:1;fill-rule:nonzero;stroke:none"
             id="path4996" />
        </g>
        <g
           id="g4998"
           transform="translate(360.7722,460.0329)">
          <path
             d="M 0,0 -0.414,1.295 C -0.751,1.034 -1.35,0.696 -2.409,0.287 -5.207,-0.794 -4.219,-0.2 -4.865,-1.307 c -0.647,-1.106 -0.87,-1.108 -1.542,-0.667 -0.673,0.441 -0.674,0.553 -1.344,0.659 -0.67,0.107 -1.347,1.133 -1.905,1.115 -0.557,-0.018 0.554,0.464 -1.227,-0.01 -1.781,-0.473 -2.561,-0.59 -3.004,-1.04 -0.443,-0.449 3.367,-2.652 0.464,-2.339 -2.903,0.313 -4.712,3.534 -5.813,1.629 -1.101,-1.905 1.199,-4.007 1.178,-4.676 -0.022,-0.67 2.113,-2.743 2.121,-3.706 0.007,-0.963 -2.112,-1.091 -2.78,-1.207 -0.668,-0.117 2.178,-0.653 0.704,-1.111 -1.473,-0.457 -2.801,-1.806 -2.801,-1.806 0,0 1.233,-0.771 0.567,-1.334 -0.665,-0.563 2.269,-1.433 2.269,-1.433 -0.355,-0.783 -3.651,-2.816 0.893,-1.22 4.544,1.596 4.653,1.931 5.099,1.935 0.446,0.003 0.994,1.346 1.005,-0.216 0.012,-1.561 -1.02,-1.569 0.667,-1.556 1.671,0.012 2.235,-0.315 2.256,-1.62 l 1.352,0.275 2.191,0.141 0.974,2.06 0.74,1.864 -0.009,1.589 0.072,1.384 0.594,2.147 -0.079,2.198 1.179,2.153 -1.616,2.33 2.257,1.543 z"
             style="fill:#afb1b0;fill-opacity:1;fill-rule:nonzero;stroke:none"
             id="path5000" />
        </g>
        <g
           id="g5002"
           transform="translate(357.6369,449.8671)">
          <path
             d="m 0,0 -2.628,2.894 3.796,1.605 -3.239,4.873 2.429,2.231 5.086,-1.788 1.422,2.515 2.035,2.966 3.053,-3.367 2.78,2.239 1.983,-2.547 3.006,0.153 3.042,-0.799 2.366,-1.994 0.511,-3.136 -2.166,-3.386 2.742,-2.26 1.295,-3.062 -3.889,-1.739 -1.115,-2.183 1.17,-4.584 -5.108,1.846 -0.945,-3.577 -2.945,0.448 -2.54,0.016 -2.824,-1.546 -3.531,-1.161 -1.231,4.04 -2.534,1.219 -3.6,0.921 -0.645,3.217 2.956,3.695 z"
             style="fill:#efefed;fill-opacity:1;fill-rule:nonzero;stroke:none"
             id="path5004" />
        </g>
        <g
           id="g5006"
           transform="translate(385.1503,447.0041)">
          <path
             d="m 0,0 -1.295,3.062 -2.742,2.26 2.165,3.386 -0.511,3.136 -2.366,1.994 -3.042,0.799 -3.005,-0.153 -1.984,2.547 -2.779,-2.239 -3.054,3.367 -0.4,-0.584 c 1.107,-0.983 2.434,-2.282 2.03,-2.539 -0.666,-0.424 -1.56,-0.211 0.564,-0.862 2.124,-0.652 2.584,-2.433 2.584,-2.433 -2.899,-0.134 -6.481,1.513 -6.135,-0.047 0.347,-1.559 4.859,-3.545 4.859,-3.545 l 2.088,-0.529 c 0,0 -0.326,-1.118 -0.77,-1.345 -0.445,-0.226 0.443,0.338 0.229,-0.89 -0.213,-1.229 -1.494,-4.251 -1.494,-4.251 0,0 0.645,-1.445 -0.477,-0.561 -1.122,0.884 -2.143,3.137 -2.583,2.282 -0.44,-0.855 -1.043,-2.017 -0.984,-2.599 0.241,-2.386 -0.994,-1.279 0.241,-2.386 1.235,-1.106 1.427,0.234 2.447,-0.539 1.021,-0.773 1.398,-1.662 1.398,-1.662 0,0 1.407,1.014 0.522,0.004 -0.885,-1.011 -0.121,-1.563 -1.893,-1.911 -1.771,-0.348 -3.446,-0.138 -4.343,0.525 -0.898,0.662 -2.131,1.545 -2.801,1.54 -0.669,-0.005 -0.432,0.331 -0.712,-0.563 -0.281,-0.895 1.214,-1.353 0.622,-2.226 -0.509,-0.751 -0.436,0.044 -0.555,-0.893 l 1.218,-0.585 1.231,-4.04 3.531,1.161 2.823,1.546 2.541,-0.016 2.944,-0.448 0.945,3.577 5.108,-1.846 -1.169,4.584 1.114,2.183 z"
             style="fill:#c4c5c3;fill-opacity:1;fill-rule:nonzero;stroke:none"
             id="path5008" />
        </g>
        <g
           id="g5010"
           transform="translate(350.124,484.576)">
          <path
             d="M 0,0 C 0,0 -2.049,1.267 -2.443,1.655 -2.836,2.042 -3.51,2.651 -4.13,3.483 -4.75,4.315 -5.029,4.368 -5.652,5.591 -6.275,6.813 -6.26,6.31 -6.665,7.534 c -0.405,1.225 -1.588,2.722 -0.656,4.793 0.933,2.071 1.169,3.26 1.756,3.917 0.586,0.658 0.148,1.087 1.128,1.221 0.981,0.134 2.261,0.423 2.988,0.261 0.726,-0.162 1.498,1.071 0.951,-0.383 C -1.045,15.888 -1.21,15.664 -2.096,14.709 -2.981,13.754 -4.27,14.698 -4.196,12.127 -4.121,9.557 -4.735,9.669 -4.443,7.942 -4.151,6.215 0,0 0,0"
             style="fill:#631118;fill-opacity:1;fill-rule:nonzero;stroke:none"
             id="path5012" />
        </g>
        <g
           id="g5014"
           transform="translate(313.6469,491.3272)">
          <path
             d="M 0,0 C 0.581,0.674 0.822,1.931 2.821,3.117 4.82,4.303 2.404,2.946 14.676,6.47 c 12.272,3.523 12.266,4.276 14.931,5.886 2.665,1.61 6.755,2.812 8.177,2.906 1.422,0.095 -2.849,0.648 -4.936,-0.037 -2.086,-0.685 -4.257,-1.249 -5.336,-2.364 -1.08,-1.115 -2.746,-1.964 -5.334,-2.82 C 19.591,9.184 16.673,7.907 13.667,7.048 10.662,6.188 3.575,4.21 10.282,7.357 16.988,10.503 23.83,12.898 19.737,12.114 15.643,11.33 9.207,10.444 7.383,8.255 5.559,6.066 7.394,6.833 5.144,5.645 2.894,4.456 1.261,6.033 -1.247,2.417 -3.756,-1.2 -8.829,-5.17 -4.658,-3.633 -0.486,-2.095 0,0 0,0"
             style="fill:#ef294c;fill-opacity:1;fill-rule:nonzero;stroke:none"
             id="path5016" />
        </g>
      </g>
    </g>
  </g>
</svg>
